<?xml version="1.0" encoding="UTF-8"?>
<svg id="uuid-709f4ccd-bdfc-428d-bb82-dc3a3920e87e" data-name="ABs" xmlns="http://www.w3.org/2000/svg" width="160" height="90" xmlns:xlink="http://www.w3.org/1999/xlink" viewBox="0 0 160 90">
  <defs>
    <style>
      .uuid-875fa12e-72c0-4169-a5a6-3e60b2d54f9d {
        stroke: #c2b44d;
        stroke-width: .6px;
      }

      .uuid-875fa12e-72c0-4169-a5a6-3e60b2d54f9d, .uuid-58f3d569-0a82-4acd-97be-358f3bc21d8a, .uuid-a15628ca-2d8a-4b4b-a2ef-106ef31c7853, .uuid-35d385ea-2158-4385-a9e9-52e2075abbf8, .uuid-5b0ee536-2e4a-4fdd-a544-c1a864c7e75b, .uuid-c0855639-54f3-421d-801f-1c90b4b8f9b2, .uuid-88132265-406a-472e-9de5-e540d8d22d78, .uuid-8c03dfa2-ff02-4e5a-ae50-60c2cb2a9f29 {
        fill: none;
      }

      .uuid-58f3d569-0a82-4acd-97be-358f3bc21d8a {
        stroke-width: .78px;
      }

      .uuid-58f3d569-0a82-4acd-97be-358f3bc21d8a, .uuid-a15628ca-2d8a-4b4b-a2ef-106ef31c7853 {
        stroke: #cc6226;
      }

      .uuid-a15628ca-2d8a-4b4b-a2ef-106ef31c7853 {
        stroke-width: .34px;
      }

      .uuid-35d385ea-2158-4385-a9e9-52e2075abbf8 {
        stroke: #b35926;
        stroke-width: .57px;
      }

      .uuid-a2d77133-0d2c-4d1e-b21d-fd6c3f386887 {
        fill: #c2b44d;
      }

      .uuid-819d91e1-5da7-463e-a795-1d365d13aa43 {
        fill: #baad4a;
      }

      .uuid-514d7116-1a6f-4551-9de5-fba84932858c {
        fill: #ad5625;
      }

      .uuid-5b0ee536-2e4a-4fdd-a544-c1a864c7e75b {
        stroke: #ad5625;
        stroke-width: .42px;
      }

      .uuid-ef64ce9a-6660-4e31-8a5c-982ab4f59f05 {
        fill: #b35926;
      }

      .uuid-c0855639-54f3-421d-801f-1c90b4b8f9b2 {
        stroke-width: .26px;
      }

      .uuid-c0855639-54f3-421d-801f-1c90b4b8f9b2, .uuid-88132265-406a-472e-9de5-e540d8d22d78 {
        stroke: #c9bb50;
      }

      .uuid-88132265-406a-472e-9de5-e540d8d22d78 {
        stroke-width: .5px;
      }

      .uuid-90ef46e2-14e7-47c7-80c6-7918b3515272 {
        fill: #cc6226;
      }

      .uuid-8c03dfa2-ff02-4e5a-ae50-60c2cb2a9f29 {
        stroke: #baad4a;
        stroke-width: .31px;
      }

      .uuid-550790c8-5d0b-41dc-855a-a46f5e70c7db {
        fill: #c9bb50;
      }
    </style>
    <symbol id="uuid-17dc798f-30b9-410a-85e2-439f4e995ee2" data-name="Bounding Box" viewBox="0 0 161.31 94.16"/>
  </defs>
  <g id="uuid-2da21bc1-2567-44d9-910b-b3a7d5a36914" data-name="AB09">
    <use width="161.31" height="94.16" transform="translate(-1.31)" xlink:href="#uuid-17dc798f-30b9-410a-85e2-439f4e995ee2"/>
    <g>
      <line class="uuid-88132265-406a-472e-9de5-e540d8d22d78" x1="1.98" y1="27.15" x2="16.3" y2="63.75"/>
      <line class="uuid-875fa12e-72c0-4169-a5a6-3e60b2d54f9d" x1="32.05" y1="24.67" x2="50.2" y2="65.49"/>
      <line class="uuid-c0855639-54f3-421d-801f-1c90b4b8f9b2" x1="62.27" y1="26.37" x2="52.13" y2="66"/>
      <line class="uuid-8c03dfa2-ff02-4e5a-ae50-60c2cb2a9f29" x1="30.05" y1="24.47" x2="18.08" y2="64.2"/>
      <line class="uuid-a15628ca-2d8a-4b4b-a2ef-106ef31c7853" x1="158.38" y1="63.41" x2="134.93" y2="24.93"/>
      <line class="uuid-58f3d569-0a82-4acd-97be-358f3bc21d8a" x1="116.1" y1="63.13" x2="99.51" y2="25.91"/>
      <line class="uuid-5b0ee536-2e4a-4fdd-a544-c1a864c7e75b" x1="80.56" y1="63.23" x2="96.7" y2="25.37"/>
      <line class="uuid-35d385ea-2158-4385-a9e9-52e2075abbf8" x1="119.04" y1="63.22" x2="132.85" y2="25.55"/>
      <path class="uuid-550790c8-5d0b-41dc-855a-a46f5e70c7db" d="M1.68,26.97l15.23.85-.51,35.65-11.71.83L1.68,26.97M.58,25.9l3.19,39.48,13.63-.97.53-37.54-17.35-.97h0Z"/>
      <path class="uuid-819d91e1-5da7-463e-a795-1d365d13aa43" d="M30.17,24.56l-1.88,40.86-10.27-1.54.52-36.52,11.62-2.8M30.82,23.76l-12.89,3.11-.53,37.54,11.48,1.72,1.94-42.37h0Z"/>
      <path class="uuid-a2d77133-0d2c-4d1e-b21d-fd6c3f386887" d="M47.52,24.91l2.79,40.25-20.17-.21,1.84-39.99,15.55-.05M48.64,23.71l-17.82.06-1.94,42.37,22.72.24-2.95-42.67h0Z"/>
      <path class="uuid-550790c8-5d0b-41dc-855a-a46f5e70c7db" d="M49.21,24.34l13.1,2.32,4.79,36.98-15.03,2.12-2.87-41.42M48.64,23.71l2.95,42.67,16.11-2.28-4.91-37.88-14.15-2.51h0Z"/>
      <path class="uuid-514d7116-1a6f-4551-9de5-fba84932858c" d="M96.87,25.27l.5,36.76-16.87.96,2.03-33.51,14.34-4.2M97.69,24.16l-15.96,4.68-2.12,35.04,18.62-1.05-.53-38.66h0Z"/>
      <path class="uuid-90ef46e2-14e7-47c7-80c6-7918b3515272" d="M99.27,25.96l17.05,2.42-.16,34.29-16.4-1.29-.48-35.42M97.69,24.16l.53,38.66,19.5,1.53.17-37.33-20.2-2.87h0Z"/>
      <path class="uuid-ef64ce9a-6660-4e31-8a5c-982ab4f59f05" d="M133.06,25.42l5.05,35.54-19.25,2.13.16-35.11,14.04-2.55M134.02,24.09l-16.13,2.93-.17,37.33,21.68-2.4-5.38-37.87h0Z"/>
      <path class="uuid-90ef46e2-14e7-47c7-80c6-7918b3515272" d="M134.81,24.9l10.3,1.62,13.32,36.67-18.44-1.84-5.18-36.45M134.02,24.09l5.38,37.87,20.03,2-13.82-38.04-11.58-1.82h0Z"/>
    </g>
  </g>
</svg>