<?xml version="1.0" encoding="UTF-8"?>
<svg id="uuid-6c173888-e471-438d-a2e3-cd1b7e5d34a3" data-name="ABs" xmlns="http://www.w3.org/2000/svg" width="160" height="90" xmlns:xlink="http://www.w3.org/1999/xlink" viewBox="0 0 160 90">
  <defs>
    <style>
      .uuid-62004523-ef84-4b5e-b5d4-2820be44a93c {
        fill: #c2b44d;
      }

      .uuid-a9d7753d-2d81-457a-9ac5-005854fcd9a0 {
        fill: #baad4a;
      }

      .uuid-4792467a-1ad3-4554-beec-1ecdca8ceb11 {
        fill: #ad5625;
      }

      .uuid-14db5f66-56cf-4715-b93e-153249e960bc {
        fill: #b35926;
      }

      .uuid-d256fed4-ed47-47cd-80f5-60f999ab2177 {
        fill: #cc6226;
      }

      .uuid-3c59e274-a1f8-4fd2-8cbb-63006cb33994 {
        fill: #c9bb50;
      }
    </style>
    <symbol id="uuid-d68e2c7d-27a2-448d-a2fe-ca1f9d05a6dc" data-name="Bounding Box" viewBox="0 0 161.31 93.86"/>
  </defs>
  <g id="uuid-4af6731a-618a-4e93-ba23-745c9bb34065" data-name="AB06">
    <use width="161.31" height="93.86" transform="translate(-1.31)" xlink:href="#uuid-d68e2c7d-27a2-448d-a2fe-ca1f9d05a6dc"/>
    <g>
      <path class="uuid-3c59e274-a1f8-4fd2-8cbb-63006cb33994" d="M1.32,27.5l15.77.86-1.16,35.5-11.61.85L1.32,27.5M.47,26.67l3.14,38.88,13.08-.95,1.2-36.97L.47,26.67H.47Z"/>
      <path class="uuid-a9d7753d-2d81-457a-9ac5-005854fcd9a0" d="M29.74,25.18l-1.86,39.74-10.7-.78,1.18-36.14,11.38-2.82M30.25,24.56l-12.36,3.06-1.2,36.97,11.65.84,1.91-40.87h0Z"/>
      <path class="uuid-62004523-ef84-4b5e-b5d4-2820be44a93c" d="M49.14,25.44l2.78,39.29-22.6-.22,1.83-39.02,17.99-.05M50,24.51l-19.75.06-1.91,40.87,24.57.23-2.91-41.16h0Z"/>
      <path class="uuid-3c59e274-a1f8-4fd2-8cbb-63006cb33994" d="M50.45,25l13.12,2.33,4.74,36.58-15.02,1.32-2.84-40.22M50,24.51l2.91,41.16,15.86-1.39-4.84-37.3-13.93-2.47h0Z"/>
      <path class="uuid-4792467a-1ad3-4554-beec-1ecdca8ceb11" d="M97.67,25.81l.99,36.58-17.48.65,2.02-32.99,14.47-4.24M98.3,24.95l-15.72,4.61-2.09,34.16,18.84-.7-1.03-38.07h0Z"/>
      <path class="uuid-d256fed4-ed47-47cd-80f5-60f999ab2177" d="M99.55,26.35l17.76,2.48-.16,34.08-16.65-1.02-.96-35.54M98.3,24.95l1.03,38.07,19.03,1.17.17-36.42-20.23-2.82h0Z"/>
      <path class="uuid-14db5f66-56cf-4715-b93e-153249e960bc" d="M133.68,25.91l5.52,35.96-19.96,1.38.16-34.74,14.27-2.6M134.41,24.89l-15.88,2.89-.17,36.42,21.86-1.51-5.81-37.79h0Z"/>
      <path class="uuid-d256fed4-ed47-47cd-80f5-60f999ab2177" d="M135.03,25.51l10.4,1.64,13.23,36.41-18-1.37-5.64-36.68M134.41,24.89l5.81,37.79,19.21,1.46-13.61-37.46-11.41-1.8h0Z"/>
    </g>
  </g>
</svg>