<?xml version="1.0" encoding="UTF-8"?>
<svg id="uuid-2ca98d9e-e351-4500-8eff-3d2a984cf269" data-name="ABs" xmlns="http://www.w3.org/2000/svg" width="160" height="90" xmlns:xlink="http://www.w3.org/1999/xlink" viewBox="0 0 160 90">
  <defs>
    <style>
      .uuid-128fa90e-01f0-4e18-bb3c-4e9273ec6f93 {
        fill: #232323;
      }

      .uuid-340dba86-dec6-4d5f-a3e0-2b5ff7023351 {
        fill: #4e83a9;
      }

      .uuid-27e1ae8a-4d4c-4c48-9e77-088c1eb9c244 {
        opacity: .8;
      }

      .uuid-27e1ae8a-4d4c-4c48-9e77-088c1eb9c244, .uuid-01a4179d-e9e0-4f88-81ab-59743a3e9bf8 {
        fill: #fff;
      }

      .uuid-768ffc06-324f-4a12-a453-dbccc968f01d {
        fill: #cc6226;
      }

      .uuid-84ec871a-7d44-4c87-8270-801b1d8a17f1 {
        fill: none;
        stroke: #ff66c7;
        stroke-width: .12px;
      }

      .uuid-92644b14-2d2c-4aa0-9e7a-9584bc612ce4 {
        fill: #ff66c7;
      }

      .uuid-8052b704-c518-4a6b-88d4-a5f7ecb1a893 {
        fill: #6e695a;
        opacity: .1;
      }

      .uuid-831514fc-7ead-4ee1-8fc3-0ccc2ebdbf68 {
        fill: #f2efeb;
        font-size: 8.5px;
      }

      .uuid-831514fc-7ead-4ee1-8fc3-0ccc2ebdbf68, .uuid-01a4179d-e9e0-4f88-81ab-59743a3e9bf8 {
        font-family: Exo-Italic, Exo;
        font-style: italic;
      }

      .uuid-01a4179d-e9e0-4f88-81ab-59743a3e9bf8 {
        font-size: 2.5px;
      }

      .uuid-b3059316-e0c2-40dd-947b-f4add714d0ec {
        fill: #c9bb50;
      }
    </style>
    <symbol id="uuid-c720a90d-03fd-469c-b7fc-ca136276ddab" data-name="Bounding Box" viewBox="0 0 161.31 94.16">
      <g>
        <g id="uuid-577b061f-de2c-48ec-8e6e-1decd4e924fc" data-name="BG">
          <rect class="uuid-128fa90e-01f0-4e18-bb3c-4e9273ec6f93" x="1.31" width="160" height="90"/>
          <rect class="uuid-8052b704-c518-4a6b-88d4-a5f7ecb1a893" x="1.31" width="160" height="90"/>
        </g>
        <g id="uuid-79627201-35a2-42ff-98fd-8d1e90b30171" data-name="Grid Lines">
          <g>
            <path class="uuid-92644b14-2d2c-4aa0-9e7a-9584bc612ce4" d="M161.18.12v89.75H1.43V.12h159.75M161.31,0H1.31v90h160V0h0Z"/>
            <line class="uuid-84ec871a-7d44-4c87-8270-801b1d8a17f1" x1="1.31" y1="81" x2="161.31" y2="81"/>
            <line class="uuid-84ec871a-7d44-4c87-8270-801b1d8a17f1" x1="1.31" y1="72" x2="161.31" y2="72"/>
            <line class="uuid-84ec871a-7d44-4c87-8270-801b1d8a17f1" x1="1.31" y1="63" x2="161.31" y2="63"/>
            <line class="uuid-84ec871a-7d44-4c87-8270-801b1d8a17f1" x1="1.31" y1="54" x2="161.31" y2="54"/>
            <line class="uuid-84ec871a-7d44-4c87-8270-801b1d8a17f1" x1="1.31" y1="45" x2="161.31" y2="45"/>
            <line class="uuid-84ec871a-7d44-4c87-8270-801b1d8a17f1" x1="1.31" y1="36" x2="161.31" y2="36"/>
            <line class="uuid-84ec871a-7d44-4c87-8270-801b1d8a17f1" x1="1.31" y1="27" x2="161.31" y2="27"/>
            <line class="uuid-84ec871a-7d44-4c87-8270-801b1d8a17f1" x1="1.31" y1="18" x2="161.31" y2="18"/>
            <line class="uuid-84ec871a-7d44-4c87-8270-801b1d8a17f1" x1="1.31" y1="9" x2="161.31" y2="9"/>
            <line class="uuid-84ec871a-7d44-4c87-8270-801b1d8a17f1" x1="145.31" x2="145.31" y2="90"/>
            <line class="uuid-84ec871a-7d44-4c87-8270-801b1d8a17f1" x1="129.31" x2="129.31" y2="90"/>
            <line class="uuid-84ec871a-7d44-4c87-8270-801b1d8a17f1" x1="113.31" x2="113.31" y2="90"/>
            <line class="uuid-84ec871a-7d44-4c87-8270-801b1d8a17f1" x1="97.31" x2="97.31" y2="90"/>
            <line class="uuid-84ec871a-7d44-4c87-8270-801b1d8a17f1" x1="81.31" x2="81.31" y2="90"/>
            <line class="uuid-84ec871a-7d44-4c87-8270-801b1d8a17f1" x1="65.31" x2="65.31" y2="90"/>
            <line class="uuid-84ec871a-7d44-4c87-8270-801b1d8a17f1" x1="49.31" x2="49.31" y2="90"/>
            <line class="uuid-84ec871a-7d44-4c87-8270-801b1d8a17f1" x1="33.31" x2="33.31" y2="90"/>
            <line class="uuid-84ec871a-7d44-4c87-8270-801b1d8a17f1" x1="17.31" x2="17.31" y2="90"/>
          </g>
        </g>
        <g id="uuid-1d205bcd-ab83-4188-89ee-9587a6c85b8a" data-name="Numbers as %">
          <text class="uuid-01a4179d-e9e0-4f88-81ab-59743a3e9bf8" transform="translate(93.21 47.48)"><tspan x="0" y="0">20</tspan></text>
          <text class="uuid-01a4179d-e9e0-4f88-81ab-59743a3e9bf8" transform="translate(109.43 47.48)"><tspan x="0" y="0">40</tspan></text>
          <text class="uuid-01a4179d-e9e0-4f88-81ab-59743a3e9bf8" transform="translate(125.38 47.48)"><tspan x="0" y="0">60</tspan></text>
          <text class="uuid-01a4179d-e9e0-4f88-81ab-59743a3e9bf8" transform="translate(141.36 47.48)"><tspan x="0" y="0">80</tspan></text>
          <text class="uuid-01a4179d-e9e0-4f88-81ab-59743a3e9bf8" transform="translate(156.2 47.48)"><tspan x="0" y="0">100</tspan></text>
          <text class="uuid-01a4179d-e9e0-4f88-81ab-59743a3e9bf8" transform="translate(1.8 47.48)"><tspan x="0" y="0">100</tspan></text>
          <text class="uuid-01a4179d-e9e0-4f88-81ab-59743a3e9bf8" transform="translate(17.81 47.48)"><tspan x="0" y="0">80</tspan></text>
          <text class="uuid-01a4179d-e9e0-4f88-81ab-59743a3e9bf8" transform="translate(33.83 47.48)"><tspan x="0" y="0">60</tspan></text>
          <text class="uuid-01a4179d-e9e0-4f88-81ab-59743a3e9bf8" transform="translate(49.84 47.48)"><tspan x="0" y="0">40</tspan></text>
          <text class="uuid-01a4179d-e9e0-4f88-81ab-59743a3e9bf8" transform="translate(65.85 47.48)"><tspan x="0" y="0">20</tspan></text>
          <text class="uuid-01a4179d-e9e0-4f88-81ab-59743a3e9bf8" transform="translate(77.39 38.59)"><tspan x="0" y="0">20</tspan></text>
          <text class="uuid-01a4179d-e9e0-4f88-81ab-59743a3e9bf8" transform="translate(77.44 29.58)"><tspan x="0" y="0">40</tspan></text>
          <text class="uuid-01a4179d-e9e0-4f88-81ab-59743a3e9bf8" transform="translate(77.37 20.56)"><tspan x="0" y="0">60</tspan></text>
          <text class="uuid-01a4179d-e9e0-4f88-81ab-59743a3e9bf8" transform="translate(77.3 11.55)"><tspan x="0" y="0">80</tspan></text>
          <text class="uuid-01a4179d-e9e0-4f88-81ab-59743a3e9bf8" transform="translate(76.33 2.65)"><tspan x="0" y="0">100</tspan></text>
          <text class="uuid-01a4179d-e9e0-4f88-81ab-59743a3e9bf8" transform="translate(76.33 89.07)"><tspan x="0" y="0">100</tspan></text>
          <text class="uuid-01a4179d-e9e0-4f88-81ab-59743a3e9bf8" transform="translate(77.3 80.05)"><tspan x="0" y="0">80</tspan></text>
          <text class="uuid-01a4179d-e9e0-4f88-81ab-59743a3e9bf8" transform="translate(77.37 71.04)"><tspan x="0" y="0">60</tspan></text>
          <text class="uuid-01a4179d-e9e0-4f88-81ab-59743a3e9bf8" transform="translate(77.44 62.02)"><tspan x="0" y="0">40</tspan></text>
          <text class="uuid-01a4179d-e9e0-4f88-81ab-59743a3e9bf8" transform="translate(77.39 53.13)"><tspan x="0" y="0">20</tspan></text>
        </g>
      </g>
    </symbol>
  </defs>
  <g id="uuid-d0d3a015-d25d-477b-84e1-5f0d14760cd2" data-name="AB02">
    <use width="161.31" height="94.16" transform="translate(-1.31)" xlink:href="#uuid-c720a90d-03fd-469c-b7fc-ca136276ddab"/>
    <g id="uuid-654f84f0-6037-48e7-b40e-37b276e455e2" data-name="TEMP LOGO">
      <rect class="uuid-768ffc06-324f-4a12-a453-dbccc968f01d" x="83.78" y="33.77" width="75.54" height="22.66" rx=".5" ry=".5"/>
      <g id="uuid-5b63f02c-7ccc-4f6e-b63b-2ba8a0bdfd35" data-name="Logo copy 2">
        <path class="uuid-27e1ae8a-4d4c-4c48-9e77-088c1eb9c244" d="M88.73,52.33v-14.85h1.67v13.18h13.16v1.67h-14.83ZM107.18,52.33c-.69,0-1.27-.24-1.75-.72-.48-.48-.72-1.06-.72-1.75v-9.88c0-.69.24-1.27.72-1.75.48-.48,1.06-.72,1.75-.72h9.89c.69,0,1.27.24,1.75.72.48.48.72,1.07.72,1.75v9.88c0,.69-.24,1.27-.72,1.75-.48.48-1.06.72-1.75.72h-9.89ZM107.18,50.66h9.89c.22,0,.41-.08.57-.24.16-.16.24-.35.24-.57v-9.88c0-.22-.08-.41-.24-.57-.16-.16-.35-.24-.57-.24h-9.89c-.22,0-.41.08-.57.24-.16.16-.24.35-.24.57v9.88c0,.22.08.41.24.57.16.16.35.24.57.24ZM124.27,52.33c-.69,0-1.27-.24-1.75-.72s-.72-1.06-.72-1.75v-9.88c0-.69.24-1.27.72-1.75.48-.48,1.07-.72,1.75-.72h9.88c.69,0,1.27.24,1.75.72.48.48.72,1.07.72,1.75v.6h-1.67v-.6c0-.22-.08-.41-.24-.57-.16-.16-.35-.24-.57-.24h-9.88c-.22,0-.41.08-.57.24-.16.16-.24.35-.24.57v9.88c0,.22.08.41.24.57.16.16.34.24.57.24h9.88c.22,0,.41-.08.57-.24.16-.16.24-.35.24-.57v-3.67h-3.67v-1.69h5.33v5.35c0,.69-.24,1.27-.72,1.75-.48.48-1.06.72-1.75.72h-9.88ZM141.32,52.33c-.69,0-1.27-.24-1.75-.72-.48-.48-.72-1.06-.72-1.75v-9.88c0-.69.24-1.27.72-1.75.48-.48,1.06-.72,1.75-.72h9.89c.69,0,1.27.24,1.75.72.48.48.72,1.07.72,1.75v9.88c0,.69-.24,1.27-.72,1.75-.48.48-1.06.72-1.75.72h-9.89ZM141.32,50.66h9.89c.22,0,.41-.08.57-.24.16-.16.24-.35.24-.57v-9.88c0-.22-.08-.41-.24-.57-.16-.16-.35-.24-.57-.24h-9.89c-.22,0-.41.08-.57.24-.16.16-.24.35-.24.57v9.88c0,.22.08.41.24.57.16.16.35.24.57.24Z"/>
      </g>
      <rect class="uuid-b3059316-e0c2-40dd-947b-f4add714d0ec" x=".68" y="33.77" width="75.54" height="22.66" rx=".5" ry=".5"/>
      <g id="uuid-7cb0aa7b-87eb-4ca4-8043-56b5390df850" data-name="TEMP copy">
        <path class="uuid-27e1ae8a-4d4c-4c48-9e77-088c1eb9c244" d="M12.23,52.33v-13.18h-6.6v-1.67h14.85v1.67h-6.58v13.18h-1.67ZM22.06,52.33v-14.85h13.55v1.67h-11.88v4.91h9.55v1.69h-9.55v4.91h11.88v1.67h-13.55ZM37.22,52.33v-14.85h2.29l6.16,7.34,6.17-7.34h2.29v14.85h-1.67v-12.95l-6.79,8.06-6.78-8.06v12.95h-1.67ZM56.36,52.33v-14.83h12.37c.69,0,1.27.24,1.75.73s.72,1.07.72,1.74v4.35c0,.67-.24,1.25-.72,1.74-.48.49-1.06.73-1.75.73h-10.7v5.53h-1.67ZM58.83,45.11h9.9c.22,0,.41-.08.57-.23s.24-.34.24-.56v-4.35c0-.22-.08-.41-.24-.57s-.35-.24-.57-.24h-9.9c-.22,0-.41.08-.57.24-.16.16-.24.35-.24.57v4.35c0,.22.08.41.24.56.16.15.34.23.57.23Z"/>
      </g>
    </g>
    <g id="uuid-e8696f97-c39a-4a35-abc2-2a62c2e29f24" data-name="Single AB Number">
      <g>
        <circle class="uuid-340dba86-dec6-4d5f-a3e0-2b5ff7023351" cx="80" cy="45" r="6.35"/>
        <text class="uuid-831514fc-7ead-4ee1-8fc3-0ccc2ebdbf68" transform="translate(76.88 47.99)"><tspan x="0" y="0">2</tspan></text>
      </g>
    </g>
  </g>
</svg>