<?xml version="1.0" encoding="UTF-8"?>
<svg id="uuid-a436f150-1c26-4d88-9823-25a9c61d91a5" data-name="ABs" xmlns="http://www.w3.org/2000/svg" width="160" height="90" xmlns:xlink="http://www.w3.org/1999/xlink" viewBox="0 0 160 90">
  <defs>
    <style>
      .uuid-e4aa948c-bdd3-43f0-b0a6-cdc8274d99ab {
        stroke: #c2b44d;
        stroke-width: .6px;
      }

      .uuid-e4aa948c-bdd3-43f0-b0a6-cdc8274d99ab, .uuid-bccc6497-5c9e-4493-a6c6-c7e78a73c6f5, .uuid-d02f26f2-8a29-4556-bc91-1d608facc8e4, .uuid-60e3791b-4a5e-4190-814f-c6d9f8313930, .uuid-60a7ddc4-fbb6-4961-8b01-98bc1474e352, .uuid-6dd1ac64-1389-4f95-bde6-42692ff4ff93, .uuid-0d86b9e3-8eba-4f67-bd23-ecef899362c0, .uuid-46511976-1b29-49cd-91e8-5789d2c4f084 {
        fill: none;
      }

      .uuid-bccc6497-5c9e-4493-a6c6-c7e78a73c6f5 {
        stroke-width: .78px;
      }

      .uuid-bccc6497-5c9e-4493-a6c6-c7e78a73c6f5, .uuid-d02f26f2-8a29-4556-bc91-1d608facc8e4 {
        stroke: #cc6226;
      }

      .uuid-d02f26f2-8a29-4556-bc91-1d608facc8e4 {
        stroke-width: .34px;
      }

      .uuid-60e3791b-4a5e-4190-814f-c6d9f8313930 {
        stroke: #b35926;
        stroke-width: .57px;
      }

      .uuid-99fe2066-2090-4de6-9886-2bd5a04aef0a {
        fill: #c2b44d;
      }

      .uuid-3144510f-5ce2-467f-896d-575981c954eb {
        fill: #baad4a;
      }

      .uuid-2f677e59-986d-47b6-9bf3-09b8d6f0f6c5 {
        fill: #ad5625;
      }

      .uuid-60a7ddc4-fbb6-4961-8b01-98bc1474e352 {
        stroke: #ad5625;
        stroke-width: .42px;
      }

      .uuid-14d8fdc4-1d5d-4f31-87d9-29d4c0224517 {
        fill: #b35926;
      }

      .uuid-6dd1ac64-1389-4f95-bde6-42692ff4ff93 {
        stroke-width: .26px;
      }

      .uuid-6dd1ac64-1389-4f95-bde6-42692ff4ff93, .uuid-0d86b9e3-8eba-4f67-bd23-ecef899362c0 {
        stroke: #c9bb50;
      }

      .uuid-0d86b9e3-8eba-4f67-bd23-ecef899362c0 {
        stroke-width: .5px;
      }

      .uuid-10e421f9-4353-4ebe-a178-887f4b094e7e {
        fill: #cc6226;
      }

      .uuid-46511976-1b29-49cd-91e8-5789d2c4f084 {
        stroke: #baad4a;
        stroke-width: .31px;
      }

      .uuid-3c889ace-2cb9-4762-abcb-751d58062561 {
        fill: #c9bb50;
      }
    </style>
    <symbol id="uuid-9ff33519-f347-4dd1-b085-a24d5554eb40" data-name="Bounding Box" viewBox="0 0 161.31 94.16"/>
  </defs>
  <g id="uuid-6e26aca0-6b41-44df-8f54-ea182e519812" data-name="AB08">
    <use width="161.31" height="94.16" transform="translate(-1.31)" xlink:href="#uuid-9ff33519-f347-4dd1-b085-a24d5554eb40"/>
    <g>
      <line class="uuid-0d86b9e3-8eba-4f67-bd23-ecef899362c0" x1="1.98" y1="27.15" x2="16.3" y2="63.75"/>
      <line class="uuid-e4aa948c-bdd3-43f0-b0a6-cdc8274d99ab" x1="32.05" y1="24.67" x2="50.2" y2="65.49"/>
      <line class="uuid-6dd1ac64-1389-4f95-bde6-42692ff4ff93" x1="62.27" y1="26.37" x2="52.13" y2="66"/>
      <line class="uuid-46511976-1b29-49cd-91e8-5789d2c4f084" x1="30.05" y1="24.47" x2="18.08" y2="64.2"/>
      <line class="uuid-d02f26f2-8a29-4556-bc91-1d608facc8e4" x1="158.38" y1="63.41" x2="134.93" y2="24.93"/>
      <line class="uuid-bccc6497-5c9e-4493-a6c6-c7e78a73c6f5" x1="116.1" y1="63.13" x2="99.51" y2="25.91"/>
      <line class="uuid-60a7ddc4-fbb6-4961-8b01-98bc1474e352" x1="80.56" y1="63.23" x2="96.7" y2="25.37"/>
      <line class="uuid-60e3791b-4a5e-4190-814f-c6d9f8313930" x1="119.04" y1="63.22" x2="132.85" y2="25.55"/>
      <path class="uuid-3c889ace-2cb9-4762-abcb-751d58062561" d="M1.68,26.97l15.23.85-.51,35.65-11.71.83L1.68,26.97M.58,25.9l3.19,39.48,13.63-.97.53-37.54-17.35-.97h0Z"/>
      <path class="uuid-3144510f-5ce2-467f-896d-575981c954eb" d="M30.17,24.56l-1.88,40.86-10.27-1.54.52-36.52,11.62-2.8M30.82,23.76l-12.89,3.11-.53,37.54,11.48,1.72,1.94-42.37h0Z"/>
      <path class="uuid-99fe2066-2090-4de6-9886-2bd5a04aef0a" d="M47.52,24.91l2.79,40.25-20.17-.21,1.84-39.99,15.55-.05M48.64,23.71l-17.82.06-1.94,42.37,22.72.24-2.95-42.67h0Z"/>
      <path class="uuid-3c889ace-2cb9-4762-abcb-751d58062561" d="M49.21,24.34l13.1,2.32,4.79,36.98-15.03,2.12-2.87-41.42M48.64,23.71l2.95,42.67,16.11-2.28-4.91-37.88-14.15-2.51h0Z"/>
      <path class="uuid-2f677e59-986d-47b6-9bf3-09b8d6f0f6c5" d="M96.87,25.27l.5,36.76-16.87.96,2.03-33.51,14.34-4.2M97.69,24.16l-15.96,4.68-2.12,35.04,18.62-1.05-.53-38.66h0Z"/>
      <path class="uuid-10e421f9-4353-4ebe-a178-887f4b094e7e" d="M99.27,25.96l17.05,2.42-.16,34.29-16.4-1.29-.48-35.42M97.69,24.16l.53,38.66,19.5,1.53.17-37.33-20.2-2.87h0Z"/>
      <path class="uuid-14d8fdc4-1d5d-4f31-87d9-29d4c0224517" d="M133.06,25.42l5.05,35.54-19.25,2.13.16-35.11,14.04-2.55M134.02,24.09l-16.13,2.93-.17,37.33,21.68-2.4-5.38-37.87h0Z"/>
      <path class="uuid-10e421f9-4353-4ebe-a178-887f4b094e7e" d="M134.81,24.9l10.3,1.62,13.32,36.67-18.44-1.84-5.18-36.45M134.02,24.09l5.38,37.87,20.03,2-13.82-38.04-11.58-1.82h0Z"/>
    </g>
  </g>
</svg>