<?xml version="1.0" encoding="UTF-8"?>
<svg id="uuid-d9917119-61d3-4632-b7f2-bf10616a0fed" data-name="ABs" xmlns="http://www.w3.org/2000/svg" width="160" height="90" xmlns:xlink="http://www.w3.org/1999/xlink" viewBox="0 0 160 90">
  <defs>
    <style>
      .uuid-3b057cae-4fab-4d5e-9042-36dce9d25fad {
        fill: #fff;
        opacity: .8;
      }

      .uuid-41716500-3917-4e66-b76a-2bb35adb8eec {
        fill: #cc6226;
      }

      .uuid-55da7a50-c0b0-4ff1-aaf8-35cc6df899ac {
        fill: #c9bb50;
      }
    </style>
    <symbol id="uuid-9d96fd8e-9e60-4aa5-9ae3-485715291711" data-name="Bounding Box" viewBox="0 0 161.31 94.16"/>
  </defs>
  <g id="uuid-e768cec4-8cf8-49ba-8312-8f501b92f33f" data-name="AB02">
    <use width="161.31" height="94.16" transform="translate(-1.31)" xlink:href="#uuid-9d96fd8e-9e60-4aa5-9ae3-485715291711"/>
    <g id="uuid-c330a346-505f-4114-983c-6476389099f0" data-name="TEMP LOGO">
      <rect class="uuid-41716500-3917-4e66-b76a-2bb35adb8eec" x="81.8" y="33.48" width="77.48" height="23.24" rx=".51" ry=".51"/>
      <g id="uuid-7980ca7d-9c9a-4947-9dc0-d973cb02cbee" data-name="Logo copy 2">
        <path class="uuid-3b057cae-4fab-4d5e-9042-36dce9d25fad" d="M86.88,52.51v-15.23h1.71v13.52h13.5v1.71h-15.21ZM105.8,52.51c-.7,0-1.3-.24-1.79-.74-.49-.49-.74-1.09-.74-1.79v-10.14c0-.7.25-1.3.74-1.8.49-.49,1.09-.74,1.79-.74h10.14c.7,0,1.3.24,1.79.74.49.5.74,1.09.74,1.8v10.14c0,.7-.25,1.3-.74,1.79-.49.5-1.09.74-1.79.74h-10.14ZM105.8,50.8h10.14c.22,0,.42-.08.58-.24.16-.16.24-.36.24-.58v-10.14c0-.22-.08-.42-.24-.58-.16-.16-.36-.24-.58-.24h-10.14c-.22,0-.42.08-.58.24-.16.16-.24.36-.24.58v10.14c0,.22.08.42.24.58.16.16.36.24.58.24ZM123.33,52.51c-.7,0-1.3-.24-1.8-.74s-.74-1.09-.74-1.79v-10.14c0-.7.24-1.3.74-1.8.5-.49,1.09-.74,1.8-.74h10.14c.7,0,1.3.24,1.79.74.49.5.74,1.09.74,1.8v.61h-1.71v-.61c0-.22-.08-.42-.24-.58-.16-.16-.36-.24-.58-.24h-10.14c-.23,0-.42.08-.58.24-.16.16-.24.36-.24.58v10.14c0,.22.08.42.24.58.16.16.35.24.58.24h10.14c.22,0,.42-.08.58-.24.16-.16.24-.36.24-.58v-3.76h-3.76v-1.73h5.47v5.49c0,.7-.25,1.3-.74,1.79-.49.5-1.09.74-1.79.74h-10.14ZM140.82,52.51c-.7,0-1.3-.24-1.79-.74-.49-.49-.74-1.09-.74-1.79v-10.14c0-.7.25-1.3.74-1.8.49-.49,1.09-.74,1.79-.74h10.14c.7,0,1.3.24,1.79.74.49.5.74,1.09.74,1.8v10.14c0,.7-.25,1.3-.74,1.79-.49.5-1.09.74-1.79.74h-10.14ZM140.82,50.8h10.14c.22,0,.42-.08.58-.24.16-.16.24-.36.24-.58v-10.14c0-.22-.08-.42-.24-.58-.16-.16-.36-.24-.58-.24h-10.14c-.22,0-.42.08-.58.24-.16.16-.24.36-.24.58v10.14c0,.22.08.42.24.58.16.16.36.24.58.24Z"/>
      </g>
      <rect class="uuid-55da7a50-c0b0-4ff1-aaf8-35cc6df899ac" x=".68" y="33.48" width="77.48" height="23.24" rx=".51" ry=".51"/>
      <g id="uuid-57a0bb7b-bfcb-462a-9bd9-464cf6a87d18" data-name="TEMP copy">
        <path class="uuid-3b057cae-4fab-4d5e-9042-36dce9d25fad" d="M12.52,52.51v-13.52h-6.77v-1.71h15.23v1.71h-6.75v13.52h-1.71ZM22.61,52.51v-15.23h13.89v1.71h-12.18v5.03h9.79v1.73h-9.79v5.03h12.18v1.71h-13.89ZM38.16,52.51v-15.23h2.35l6.32,7.53,6.33-7.53h2.35v15.23h-1.71v-13.28l-6.96,8.27-6.96-8.27v13.28h-1.71ZM57.78,52.51v-15.21h12.69c.7,0,1.3.25,1.8.75s.74,1.09.74,1.79v4.46c0,.69-.25,1.29-.74,1.79-.49.5-1.09.75-1.8.75h-10.98v5.67h-1.71ZM60.32,45.11h10.15c.22,0,.42-.08.58-.23s.24-.35.24-.57v-4.46c0-.22-.08-.42-.24-.58s-.36-.24-.58-.24h-10.15c-.23,0-.42.08-.58.24-.16.16-.25.36-.25.58v4.46c0,.22.08.42.25.57.16.15.35.23.58.23Z"/>
      </g>
    </g>
  </g>
</svg>