<?xml version="1.0" encoding="UTF-8"?>
<svg id="uuid-a2655968-d389-44cf-912d-f955ff233f20" data-name="ABs" xmlns="http://www.w3.org/2000/svg" width="160" height="90" xmlns:xlink="http://www.w3.org/1999/xlink" viewBox="0 0 160 90">
  <defs>
    <style>
      .uuid-e16fae76-8663-4c8c-91cc-df105761b276 {
        fill: #6e695a;
      }

      .uuid-fa08eacb-d70e-4f1d-bd7d-9b7469ea832a {
        fill: #cc6226;
      }

      .uuid-f81a2a47-bfd2-4fa6-932c-70f89f03f860 {
        fill: #c9bb50;
      }
    </style>
    <symbol id="uuid-ddf559db-ed3f-4d65-b8e2-e40977ebc841" data-name="Bounding Box" viewBox="0 0 161.31 94.16"/>
  </defs>
  <g id="uuid-17226d75-d289-459d-bb3a-40436ccc2871" data-name="AB01">
    <use width="161.31" height="94.16" transform="translate(-1.31)" xlink:href="#uuid-ddf559db-ed3f-4d65-b8e2-e40977ebc841"/>
    <g id="uuid-3c71e8b4-2381-4a39-a698-d7e48e4747df" data-name="Logo copy">
      <rect class="uuid-f81a2a47-bfd2-4fa6-932c-70f89f03f860" x="131.89" y="32.36" width="27.31" height="2.11" rx=".35" ry=".35"/>
      <rect class="uuid-f81a2a47-bfd2-4fa6-932c-70f89f03f860" x="105.94" y="32.36" width="24.58" height="4.21" rx=".35" ry=".35"/>
      <rect class="uuid-f81a2a47-bfd2-4fa6-932c-70f89f03f860" x="82.73" y="32.36" width="21.85" height="6.32" rx=".35" ry=".35"/>
      <rect class="uuid-f81a2a47-bfd2-4fa6-932c-70f89f03f860" x="62.25" y="32.36" width="19.12" height="8.43" rx=".35" ry=".35"/>
      <rect class="uuid-f81a2a47-bfd2-4fa6-932c-70f89f03f860" x="44.5" y="32.36" width="16.39" height="10.53" rx=".35" ry=".35"/>
      <rect class="uuid-f81a2a47-bfd2-4fa6-932c-70f89f03f860" x="29.48" y="32.36" width="13.66" height="12.64" rx=".35" ry=".35"/>
      <rect class="uuid-f81a2a47-bfd2-4fa6-932c-70f89f03f860" x="17.19" y="32.36" width="10.92" height="14.75" rx=".35" ry=".35"/>
      <rect class="uuid-f81a2a47-bfd2-4fa6-932c-70f89f03f860" x="7.63" y="32.36" width="8.19" height="16.85" rx=".35" ry=".35"/>
      <rect class="uuid-f81a2a47-bfd2-4fa6-932c-70f89f03f860" x=".8" y="32.36" width="5.46" height="18.96" rx=".35" ry=".35"/>
      <rect class="uuid-fa08eacb-d70e-4f1d-bd7d-9b7469ea832a" x=".8" y="54.48" width="5.46" height="3.16" rx=".35" ry=".35"/>
      <rect class="uuid-e16fae76-8663-4c8c-91cc-df105761b276" x=".8" y="52.37" width="5.46" height="1.05" rx=".35" ry=".35"/>
      <rect class="uuid-fa08eacb-d70e-4f1d-bd7d-9b7469ea832a" x="131.89" y="46.05" width="27.31" height="11.59" rx=".35" ry=".35"/>
      <rect class="uuid-e16fae76-8663-4c8c-91cc-df105761b276" x="131.89" y="35.52" width="27.31" height="9.48" rx=".35" ry=".35"/>
      <rect class="uuid-fa08eacb-d70e-4f1d-bd7d-9b7469ea832a" x="105.94" y="47.11" width="24.58" height="10.53" rx=".35" ry=".35"/>
      <rect class="uuid-e16fae76-8663-4c8c-91cc-df105761b276" x="105.94" y="37.63" width="24.58" height="8.43" rx=".35" ry=".35"/>
      <rect class="uuid-fa08eacb-d70e-4f1d-bd7d-9b7469ea832a" x="82.73" y="48.16" width="21.85" height="9.48" rx=".35" ry=".35"/>
      <rect class="uuid-e16fae76-8663-4c8c-91cc-df105761b276" x="82.73" y="39.73" width="21.85" height="7.37" rx=".35" ry=".35"/>
      <rect class="uuid-fa08eacb-d70e-4f1d-bd7d-9b7469ea832a" x="62.25" y="49.21" width="19.12" height="8.43" rx=".35" ry=".35"/>
      <rect class="uuid-e16fae76-8663-4c8c-91cc-df105761b276" x="62.25" y="41.84" width="19.12" height="6.32" rx=".35" ry=".35"/>
      <rect class="uuid-fa08eacb-d70e-4f1d-bd7d-9b7469ea832a" x="44.5" y="50.27" width="16.39" height="7.37" rx=".35" ry=".35"/>
      <rect class="uuid-e16fae76-8663-4c8c-91cc-df105761b276" x="44.5" y="43.95" width="16.39" height="5.27" rx=".35" ry=".35"/>
      <rect class="uuid-fa08eacb-d70e-4f1d-bd7d-9b7469ea832a" x="29.48" y="51.32" width="13.66" height="6.32" rx=".35" ry=".35"/>
      <rect class="uuid-e16fae76-8663-4c8c-91cc-df105761b276" x="29.48" y="46.05" width="13.66" height="4.21" rx=".35" ry=".35"/>
      <rect class="uuid-fa08eacb-d70e-4f1d-bd7d-9b7469ea832a" x="17.19" y="52.37" width="10.92" height="5.27" rx=".35" ry=".35"/>
      <rect class="uuid-e16fae76-8663-4c8c-91cc-df105761b276" x="17.19" y="48.16" width="10.92" height="3.16" rx=".35" ry=".35"/>
      <rect class="uuid-fa08eacb-d70e-4f1d-bd7d-9b7469ea832a" x="7.63" y="53.43" width="8.19" height="4.21" rx=".35" ry=".35"/>
      <rect class="uuid-e16fae76-8663-4c8c-91cc-df105761b276" x="7.63" y="50.27" width="8.19" height="2.11" rx=".35" ry=".35"/>
    </g>
  </g>
</svg>