<?xml version="1.0" encoding="UTF-8"?>
<svg id="uuid-73ff1ca9-6c01-466f-b7f8-a1729e6b26a3" data-name="Layer 2" xmlns="http://www.w3.org/2000/svg" width="31.75" height="4.5" viewBox="0 0 31.75 4.5">
  <defs>
    <style>
      .uuid-e5f60c9e-312f-4e56-8bc5-c2cb30d77ee9 {
        fill: #fff;
      }

      .uuid-e5f60c9e-312f-4e56-8bc5-c2cb30d77ee9, .uuid-0a6b8791-bfb0-48d8-bd38-af23681cc22b {
        opacity: .8;
      }

      .uuid-478a6ca1-85cc-4392-a8a6-7524ae1164e9 {
        fill: #cc6226;
      }

      .uuid-349209e4-8a5c-4f74-afe1-a5858775272f {
        opacity: .6;
      }

      .uuid-e7161560-948b-46a7-a560-4125396c93e9 {
        fill: #c9bb50;
      }
    </style>
  </defs>
  <g id="uuid-0ba263c4-a02e-4209-8edc-992b4b77c2e6" data-name="ABs">
    <g id="uuid-c674a98a-4f47-43f6-854f-c4e33c57e7fb" data-name="AB05">
      <g id="uuid-a1fe4451-d721-4268-9195-87cea29f9276" data-name="Logo 02 copy">
        <g class="uuid-0a6b8791-bfb0-48d8-bd38-af23681cc22b">
          <rect class="uuid-478a6ca1-85cc-4392-a8a6-7524ae1164e9" x="16.5" width="15.25" height="4.5" rx=".25" ry=".25"/>
        </g>
        <g id="uuid-87143357-b662-4785-8012-7af77128fb0b" data-name="Logo">
          <path class="uuid-e5f60c9e-312f-4e56-8bc5-c2cb30d77ee9" d="M17.5,3.75V.75h.34v2.66h2.66v.34h-3ZM21.23,3.75c-.14,0-.26-.05-.35-.15-.1-.1-.15-.21-.15-.35v-2c0-.14.05-.26.15-.35.1-.1.21-.15.35-.15h2c.14,0,.26.05.35.15.1.1.15.22.15.35v2c0,.14-.05.26-.15.35-.1.1-.21.15-.35.15h-2ZM21.23,3.41h2s.08-.02.11-.05c.03-.03.05-.07.05-.11v-2s-.02-.08-.05-.11c-.03-.03-.07-.05-.11-.05h-2s-.08.02-.11.05c-.03.03-.05.07-.05.11v2s.02.08.05.11c.03.03.07.05.11.05ZM24.68,3.75c-.14,0-.26-.05-.35-.15s-.15-.21-.15-.35v-2c0-.14.05-.26.15-.35.1-.1.22-.15.35-.15h2c.14,0,.26.05.35.15.1.1.15.22.15.35v.12h-.34v-.12s-.02-.08-.05-.11c-.03-.03-.07-.05-.11-.05h-2s-.08.02-.11.05c-.03.03-.05.07-.05.11v2s.02.08.05.11c.03.03.07.05.11.05h2s.08-.02.11-.05c.03-.03.05-.07.05-.11v-.74h-.74v-.34h1.08v1.08c0,.14-.05.26-.15.35-.1.1-.21.15-.35.15h-2ZM28.13,3.75c-.14,0-.26-.05-.35-.15-.1-.1-.15-.21-.15-.35v-2c0-.14.05-.26.15-.35.1-.1.21-.15.35-.15h2c.14,0,.26.05.35.15.1.1.15.22.15.35v2c0,.14-.05.26-.15.35-.1.1-.21.15-.35.15h-2ZM28.13,3.41h2s.08-.02.11-.05c.03-.03.05-.07.05-.11v-2s-.02-.08-.05-.11c-.03-.03-.07-.05-.11-.05h-2s-.08.02-.11.05c-.03.03-.05.07-.05.11v2s.02.08.05.11c.03.03.07.05.11.05Z"/>
        </g>
        <g class="uuid-349209e4-8a5c-4f74-afe1-a5858775272f">
          <rect class="uuid-e7161560-948b-46a7-a560-4125396c93e9" x="0" width="15.25" height="4.5" rx=".25" ry=".25"/>
        </g>
        <g id="uuid-db9b961d-a1c7-4093-bca7-6e2f18a5fcb1" data-name="TEMP">
          <path class="uuid-e5f60c9e-312f-4e56-8bc5-c2cb30d77ee9" d="M2.33,3.75V1.09h-1.33v-.34h3v.34h-1.33v2.66h-.34ZM4.32,3.75V.75h2.74v.34h-2.4v.99h1.93v.34h-1.93v.99h2.4v.34h-2.74ZM7.38,3.75V.75h.46l1.25,1.48,1.25-1.48h.46v3h-.34V1.13l-1.37,1.63-1.37-1.63v2.62h-.34ZM11.25,3.75V.75h2.5c.14,0,.26.05.35.15s.15.22.15.35v.88c0,.14-.05.25-.15.35s-.22.15-.35.15h-2.16v1.12h-.34ZM11.75,2.29h2s.08-.02.11-.05.05-.07.05-.11v-.88s-.02-.08-.05-.11-.07-.05-.11-.05h-2s-.08.02-.11.05c-.03.03-.05.07-.05.11v.88s.02.08.05.11c.03.03.07.05.11.05Z"/>
        </g>
      </g>
    </g>
  </g>
</svg>