<?xml version="1.0" encoding="UTF-8"?>
<svg id="uuid-2188cec3-aa7e-4f2e-832f-dd5f7fd7028d" data-name="ABs" xmlns="http://www.w3.org/2000/svg" width="160" height="90" xmlns:xlink="http://www.w3.org/1999/xlink" viewBox="0 0 160 90">
  <defs>
    <style>
      .uuid-369167c9-e1ca-4b93-943d-c5f46c8b2c9b {
        fill: #c2b44d;
      }

      .uuid-04c9c6aa-ce2d-47fe-bff8-ea8ca3142b4c {
        fill: #baad4a;
      }

      .uuid-9a603410-e3dc-48ea-99a9-4f556c2d2807 {
        fill: #ad5625;
      }

      .uuid-82b0a2eb-7005-4608-a068-5d5d413fde1c {
        fill: #b35926;
      }

      .uuid-0ef7e6b4-2138-4781-bed2-5869e3837f6f {
        fill: #cc6226;
      }

      .uuid-579b46e3-d338-480f-a4e3-f9d3c4b5206d {
        fill: #c9bb50;
      }
    </style>
    <symbol id="uuid-f29ea2c2-589b-4c24-8e12-0d51ea96837d" data-name="Bounding Box" viewBox="0 0 161.31 94.16"/>
  </defs>
  <g id="uuid-555d33b0-1008-4777-8215-a6660f335b13" data-name="AB07">
    <use width="161.31" height="94.16" transform="translate(-1.31)" xlink:href="#uuid-f29ea2c2-589b-4c24-8e12-0d51ea96837d"/>
    <g>
      <path class="uuid-579b46e3-d338-480f-a4e3-f9d3c4b5206d" d="M1.63,26.8l15.64.87-.51,35.94-12.09.86L1.63,26.8M.78,25.97l3.18,39.33,13.58-.97.53-37.4-17.28-.97h0Z"/>
      <path class="uuid-04c9c6aa-ce2d-47fe-bff8-ea8ca3142b4c" d="M30.4,24.46l-1.88,41.04-10.5-1.57.52-36.61,11.86-2.86M30.91,23.84l-12.85,3.1-.53,37.4,11.44,1.71,1.94-42.21h0Z"/>
      <path class="uuid-369167c9-e1ca-4b93-943d-c5f46c8b2c9b" d="M47.79,24.72l2.81,40.63-20.66-.22,1.85-40.36,15.99-.05M48.66,23.78l-17.75.06-1.94,42.21,22.63.24-2.94-42.51h0Z"/>
      <path class="uuid-579b46e3-d338-480f-a4e3-f9d3c4b5206d" d="M49.1,24.28l13.28,2.35,4.8,37.04-15.21,2.15-2.88-41.54M48.66,23.78l2.94,42.51,16.04-2.27-4.89-37.74-14.1-2.5h0Z"/>
      <path class="uuid-9a603410-e3dc-48ea-99a9-4f556c2d2807" d="M96.88,25.1l.51,37.04-17.19.97,2.04-33.72,14.64-4.29M97.52,24.24l-15.9,4.66-2.12,34.91,18.55-1.05-.53-38.52h0Z"/>
      <path class="uuid-0ef7e6b4-2138-4781-bed2-5869e3837f6f" d="M98.75,25.63l17.68,2.51-.16,34.83-17.03-1.34-.49-36M97.52,24.24l.53,38.52,19.43,1.53.17-37.19-20.12-2.86h0Z"/>
      <path class="uuid-82b0a2eb-7005-4608-a068-5d5d413fde1c" d="M132.97,25.2l5.1,35.92-19.72,2.18.16-35.47,14.45-2.63M133.71,24.17l-16.07,2.92-.17,37.19,21.6-2.39-5.36-37.72h0Z"/>
      <path class="uuid-0ef7e6b4-2138-4781-bed2-5869e3837f6f" d="M134.33,24.79l10.54,1.66,13.38,36.83-18.72-1.87-5.2-36.62M133.71,24.17l5.36,37.72,19.95,1.99-13.77-37.9-11.54-1.82h0Z"/>
    </g>
  </g>
</svg>