<?xml version="1.0" encoding="UTF-8"?>
<svg id="uuid-488089dc-73c5-4f36-937d-5f0764836760" data-name="ABs" xmlns="http://www.w3.org/2000/svg" width="160" height="90" xmlns:xlink="http://www.w3.org/1999/xlink" viewBox="0 0 160 90">
  <defs>
    <style>
      .uuid-a55575da-8778-4cec-bdbc-93b57376ff71 {
        fill: #baad4a;
      }

      .uuid-29d12797-48ab-408a-a941-958927323a3c {
        fill: #b35926;
      }

      .uuid-d282de9f-b4f5-48b9-bfb7-a2cf04e73e3f {
        fill: #cc6226;
      }

      .uuid-1bab694d-bdcd-440f-bad6-1688fbecea54 {
        fill: #b3a647;
      }

      .uuid-a8cbc044-74b0-4f5f-a1f9-91d63dd8273e {
        fill: #c9bb50;
      }
    </style>
    <symbol id="uuid-11c94a36-25ff-4901-9c11-eba2c63b479f" data-name="Bounding Box" viewBox="0 0 161.31 94.16"/>
  </defs>
  <g id="uuid-f0480350-d997-48fe-8b5f-f09a27639c1a" data-name="AB04">
    <use width="161.31" height="94.16" transform="translate(-1.31)" xlink:href="#uuid-11c94a36-25ff-4901-9c11-eba2c63b479f"/>
    <g id="uuid-55273e5b-7e98-4c83-b499-14d746ea6eaa" data-name="New 02">
      <g>
        <polygon class="uuid-a55575da-8778-4cec-bdbc-93b57376ff71" points=".41 26.02 4.52 64.92 16.6 63.98 19.63 27.46 .41 26.02"/>
        <polygon class="uuid-1bab694d-bdcd-440f-bad6-1688fbecea54" points="19.63 27.46 16.6 63.98 28.94 64.81 32.5 26.45 19.63 27.46"/>
        <polygon class="uuid-a8cbc044-74b0-4f5f-a1f9-91d63dd8273e" points="32.5 26.45 28.94 64.81 53.21 65.04 52.85 25.72 32.5 26.45"/>
        <polygon class="uuid-a55575da-8778-4cec-bdbc-93b57376ff71" points="52.85 25.72 53.21 65.04 68.54 64 64.43 26.99 52.85 25.72"/>
        <polygon class="uuid-29d12797-48ab-408a-a941-958927323a3c" points="82.52 29.37 80.45 63.12 99.06 62.43 98.04 24.82 82.52 29.37"/>
        <polygon class="uuid-d282de9f-b4f5-48b9-bfb7-a2cf04e73e3f" points="98.04 24.82 99.06 62.43 117.86 63.58 119.19 25.94 98.04 24.82"/>
        <polygon class="uuid-29d12797-48ab-408a-a941-958927323a3c" points="119.19 25.94 117.86 63.58 139.45 62.09 133.71 24.76 119.19 25.94"/>
        <polygon class="uuid-d282de9f-b4f5-48b9-bfb7-a2cf04e73e3f" points="133.71 24.76 139.45 62.09 159.59 63.53 145.14 26.2 133.71 24.76"/>
      </g>
    </g>
  </g>
</svg>