<?xml version="1.0" encoding="UTF-8"?>
<svg id="uuid-e5319b87-4331-4c02-a363-7ad8e1147a43" data-name="ABs" xmlns="http://www.w3.org/2000/svg" width="160" height="90" xmlns:xlink="http://www.w3.org/1999/xlink" viewBox="0 0 160 90">
  <defs>
    <style>
      .uuid-9ef9b432-85c7-4ca0-9d4d-aed1efaa2447 {
        fill: #c2b44d;
      }

      .uuid-b7eea1f8-5213-45a1-9d61-1b11e3c95ea4 {
        fill: #baad4a;
      }

      .uuid-84edf5fc-7548-42d0-9b6e-c7ce60273a7f {
        fill: #ad5625;
      }

      .uuid-808dabfe-c79b-49a1-8361-bb2b520c6c60 {
        fill: #b35926;
      }

      .uuid-9f0091ac-6e59-4d6e-8cf3-cefe05c073b8 {
        fill: #cc6226;
      }

      .uuid-1a94c20d-a05c-420f-8cea-917c9a2f8d8d {
        fill: #c9bb50;
      }
    </style>
    <symbol id="uuid-84802217-709b-41d6-a29c-e0a040360e65" data-name="Bounding Box" viewBox="0 0 161.31 94.16"/>
  </defs>
  <g id="uuid-2ade616e-f204-4322-b282-ce721ff76736" data-name="AB06">
    <use width="161.31" height="94.16" transform="translate(-1.31)" xlink:href="#uuid-84802217-709b-41d6-a29c-e0a040360e65"/>
    <g>
      <path class="uuid-1a94c20d-a05c-420f-8cea-917c9a2f8d8d" d="M1.32,27.5l15.77.86-1.16,35.5-11.61.85L1.32,27.5M.47,26.67l3.14,38.88,13.08-.95,1.2-36.97L.47,26.67H.47Z"/>
      <path class="uuid-b7eea1f8-5213-45a1-9d61-1b11e3c95ea4" d="M29.74,25.18l-1.86,39.74-10.7-.78,1.18-36.14,11.38-2.82M30.25,24.56l-12.36,3.06-1.2,36.97,11.65.84,1.91-40.87h0Z"/>
      <path class="uuid-9ef9b432-85c7-4ca0-9d4d-aed1efaa2447" d="M49.14,25.44l2.78,39.29-22.6-.22,1.83-39.02,17.99-.05M50,24.51l-19.75.06-1.91,40.87,24.57.23-2.91-41.16h0Z"/>
      <path class="uuid-1a94c20d-a05c-420f-8cea-917c9a2f8d8d" d="M50.45,25l13.12,2.33,4.74,36.58-15.02,1.32-2.84-40.22M50,24.51l2.91,41.16,15.86-1.39-4.84-37.3-13.93-2.47h0Z"/>
      <path class="uuid-84edf5fc-7548-42d0-9b6e-c7ce60273a7f" d="M97.67,25.81l.99,36.58-17.48.65,2.02-32.99,14.47-4.24M98.3,24.95l-15.72,4.61-2.09,34.16,18.84-.7-1.03-38.07h0Z"/>
      <path class="uuid-9f0091ac-6e59-4d6e-8cf3-cefe05c073b8" d="M99.55,26.35l17.76,2.48-.16,34.08-16.65-1.02-.96-35.54M98.3,24.95l1.03,38.07,19.03,1.17.17-36.42-20.23-2.82h0Z"/>
      <path class="uuid-808dabfe-c79b-49a1-8361-bb2b520c6c60" d="M133.68,25.91l5.52,35.96-19.96,1.38.16-34.74,14.27-2.6M134.41,24.89l-15.88,2.89-.17,36.42,21.86-1.51-5.81-37.79h0Z"/>
      <path class="uuid-9f0091ac-6e59-4d6e-8cf3-cefe05c073b8" d="M135.03,25.51l10.4,1.64,13.23,36.41-18-1.37-5.64-36.68M134.41,24.89l5.81,37.79,19.21,1.46-13.61-37.46-11.41-1.8h0Z"/>
    </g>
  </g>
</svg>