<?xml version="1.0" encoding="UTF-8"?>
<svg id="uuid-90e74897-fb6a-4583-ab99-123d043f0832" data-name="ABs" xmlns="http://www.w3.org/2000/svg" width="160" height="90" xmlns:xlink="http://www.w3.org/1999/xlink" viewBox="0 0 160 90">
  <defs>
    <style>
      .uuid-45b179b6-709d-499a-a88b-70bad3711c18 {
        fill: #232323;
      }

      .uuid-958f4c87-d47b-4f73-9e03-8fe1b1a9fbe0 {
        fill: #4e83a9;
      }

      .uuid-c9833dae-d258-41d6-8529-3492c835ea32 {
        fill: #c2b44d;
      }

      .uuid-a31bc47a-30a9-42e3-ab67-23ae5f170049 {
        fill: #baad4a;
      }

      .uuid-3f37d2e3-146e-48b3-89c9-d188c8564701 {
        fill: #ad5625;
      }

      .uuid-66ad31f1-ecde-442b-8a8b-63547ab8a339 {
        fill: #b35926;
      }

      .uuid-7473cb30-e4de-4bc8-99de-3cbf8d4b8848 {
        fill: #cc6226;
      }

      .uuid-8edd0eec-32c1-4a9e-8f5a-b38102f6c51b {
        fill: none;
        stroke: #ff66c7;
        stroke-width: .12px;
      }

      .uuid-2bb917e0-f435-438f-93d6-7524234b8081 {
        fill: #ff66c7;
      }

      .uuid-c9064277-00a7-49e4-b626-dc04cb25f43f {
        fill: #6e695a;
        opacity: .1;
      }

      .uuid-cfa3f2c9-4c54-4c82-a834-738d1b0c0a90 {
        fill: #f2efeb;
        font-size: 8.5px;
      }

      .uuid-cfa3f2c9-4c54-4c82-a834-738d1b0c0a90, .uuid-9efa6d46-3526-4e65-8a3f-5cc9f91ce942 {
        font-family: Exo-Italic, Exo;
        font-style: italic;
      }

      .uuid-9efa6d46-3526-4e65-8a3f-5cc9f91ce942 {
        fill: #fff;
        font-size: 2.5px;
      }

      .uuid-72be530e-addf-4afd-8845-3ada65cbe63d {
        fill: #c9bb50;
      }
    </style>
    <symbol id="uuid-a768c8db-0e96-48e4-a101-0c607a7cc730" data-name="Bounding Box" viewBox="0 0 161.31 94.16">
      <g>
        <g id="uuid-affb1c85-64ab-4eb3-a670-f3cf76ca7361" data-name="BG">
          <rect class="uuid-45b179b6-709d-499a-a88b-70bad3711c18" x="1.31" width="160" height="90"/>
          <rect class="uuid-c9064277-00a7-49e4-b626-dc04cb25f43f" x="1.31" width="160" height="90"/>
        </g>
        <g id="uuid-04477382-8d38-4137-93a0-e0a0e7ab6bdd" data-name="Grid Lines">
          <g>
            <path class="uuid-2bb917e0-f435-438f-93d6-7524234b8081" d="M161.18.12v89.75H1.43V.12h159.75M161.31,0H1.31v90h160V0h0Z"/>
            <line class="uuid-8edd0eec-32c1-4a9e-8f5a-b38102f6c51b" x1="1.31" y1="81" x2="161.31" y2="81"/>
            <line class="uuid-8edd0eec-32c1-4a9e-8f5a-b38102f6c51b" x1="1.31" y1="72" x2="161.31" y2="72"/>
            <line class="uuid-8edd0eec-32c1-4a9e-8f5a-b38102f6c51b" x1="1.31" y1="63" x2="161.31" y2="63"/>
            <line class="uuid-8edd0eec-32c1-4a9e-8f5a-b38102f6c51b" x1="1.31" y1="54" x2="161.31" y2="54"/>
            <line class="uuid-8edd0eec-32c1-4a9e-8f5a-b38102f6c51b" x1="1.31" y1="45" x2="161.31" y2="45"/>
            <line class="uuid-8edd0eec-32c1-4a9e-8f5a-b38102f6c51b" x1="1.31" y1="36" x2="161.31" y2="36"/>
            <line class="uuid-8edd0eec-32c1-4a9e-8f5a-b38102f6c51b" x1="1.31" y1="27" x2="161.31" y2="27"/>
            <line class="uuid-8edd0eec-32c1-4a9e-8f5a-b38102f6c51b" x1="1.31" y1="18" x2="161.31" y2="18"/>
            <line class="uuid-8edd0eec-32c1-4a9e-8f5a-b38102f6c51b" x1="1.31" y1="9" x2="161.31" y2="9"/>
            <line class="uuid-8edd0eec-32c1-4a9e-8f5a-b38102f6c51b" x1="145.31" x2="145.31" y2="90"/>
            <line class="uuid-8edd0eec-32c1-4a9e-8f5a-b38102f6c51b" x1="129.31" x2="129.31" y2="90"/>
            <line class="uuid-8edd0eec-32c1-4a9e-8f5a-b38102f6c51b" x1="113.31" x2="113.31" y2="90"/>
            <line class="uuid-8edd0eec-32c1-4a9e-8f5a-b38102f6c51b" x1="97.31" x2="97.31" y2="90"/>
            <line class="uuid-8edd0eec-32c1-4a9e-8f5a-b38102f6c51b" x1="81.31" x2="81.31" y2="90"/>
            <line class="uuid-8edd0eec-32c1-4a9e-8f5a-b38102f6c51b" x1="65.31" x2="65.31" y2="90"/>
            <line class="uuid-8edd0eec-32c1-4a9e-8f5a-b38102f6c51b" x1="49.31" x2="49.31" y2="90"/>
            <line class="uuid-8edd0eec-32c1-4a9e-8f5a-b38102f6c51b" x1="33.31" x2="33.31" y2="90"/>
            <line class="uuid-8edd0eec-32c1-4a9e-8f5a-b38102f6c51b" x1="17.31" x2="17.31" y2="90"/>
          </g>
        </g>
        <g id="uuid-fc6ce413-8e61-4828-a238-ceba45167855" data-name="Numbers as %">
          <text class="uuid-9efa6d46-3526-4e65-8a3f-5cc9f91ce942" transform="translate(93.21 47.48)"><tspan x="0" y="0">20</tspan></text>
          <text class="uuid-9efa6d46-3526-4e65-8a3f-5cc9f91ce942" transform="translate(109.43 47.48)"><tspan x="0" y="0">40</tspan></text>
          <text class="uuid-9efa6d46-3526-4e65-8a3f-5cc9f91ce942" transform="translate(125.38 47.48)"><tspan x="0" y="0">60</tspan></text>
          <text class="uuid-9efa6d46-3526-4e65-8a3f-5cc9f91ce942" transform="translate(141.36 47.48)"><tspan x="0" y="0">80</tspan></text>
          <text class="uuid-9efa6d46-3526-4e65-8a3f-5cc9f91ce942" transform="translate(156.2 47.48)"><tspan x="0" y="0">100</tspan></text>
          <text class="uuid-9efa6d46-3526-4e65-8a3f-5cc9f91ce942" transform="translate(1.8 47.48)"><tspan x="0" y="0">100</tspan></text>
          <text class="uuid-9efa6d46-3526-4e65-8a3f-5cc9f91ce942" transform="translate(17.81 47.48)"><tspan x="0" y="0">80</tspan></text>
          <text class="uuid-9efa6d46-3526-4e65-8a3f-5cc9f91ce942" transform="translate(33.83 47.48)"><tspan x="0" y="0">60</tspan></text>
          <text class="uuid-9efa6d46-3526-4e65-8a3f-5cc9f91ce942" transform="translate(49.84 47.48)"><tspan x="0" y="0">40</tspan></text>
          <text class="uuid-9efa6d46-3526-4e65-8a3f-5cc9f91ce942" transform="translate(65.85 47.48)"><tspan x="0" y="0">20</tspan></text>
          <text class="uuid-9efa6d46-3526-4e65-8a3f-5cc9f91ce942" transform="translate(77.39 38.59)"><tspan x="0" y="0">20</tspan></text>
          <text class="uuid-9efa6d46-3526-4e65-8a3f-5cc9f91ce942" transform="translate(77.44 29.58)"><tspan x="0" y="0">40</tspan></text>
          <text class="uuid-9efa6d46-3526-4e65-8a3f-5cc9f91ce942" transform="translate(77.37 20.56)"><tspan x="0" y="0">60</tspan></text>
          <text class="uuid-9efa6d46-3526-4e65-8a3f-5cc9f91ce942" transform="translate(77.3 11.55)"><tspan x="0" y="0">80</tspan></text>
          <text class="uuid-9efa6d46-3526-4e65-8a3f-5cc9f91ce942" transform="translate(76.33 2.65)"><tspan x="0" y="0">100</tspan></text>
          <text class="uuid-9efa6d46-3526-4e65-8a3f-5cc9f91ce942" transform="translate(76.33 89.07)"><tspan x="0" y="0">100</tspan></text>
          <text class="uuid-9efa6d46-3526-4e65-8a3f-5cc9f91ce942" transform="translate(77.3 80.05)"><tspan x="0" y="0">80</tspan></text>
          <text class="uuid-9efa6d46-3526-4e65-8a3f-5cc9f91ce942" transform="translate(77.37 71.04)"><tspan x="0" y="0">60</tspan></text>
          <text class="uuid-9efa6d46-3526-4e65-8a3f-5cc9f91ce942" transform="translate(77.44 62.02)"><tspan x="0" y="0">40</tspan></text>
          <text class="uuid-9efa6d46-3526-4e65-8a3f-5cc9f91ce942" transform="translate(77.39 53.13)"><tspan x="0" y="0">20</tspan></text>
        </g>
      </g>
    </symbol>
  </defs>
  <g id="uuid-595c9cd4-41a2-49d8-8d88-9f82c9489b35" data-name="AB07">
    <use width="161.31" height="94.16" transform="translate(-1.31)" xlink:href="#uuid-a768c8db-0e96-48e4-a101-0c607a7cc730"/>
    <g>
      <path class="uuid-72be530e-addf-4afd-8845-3ada65cbe63d" d="M1.63,26.8l15.64.87-.51,35.94-12.09.86L1.63,26.8M.78,25.97l3.18,39.33,13.58-.97.53-37.4-17.28-.97h0Z"/>
      <path class="uuid-a31bc47a-30a9-42e3-ab67-23ae5f170049" d="M30.4,24.46l-1.88,41.04-10.5-1.57.52-36.61,11.86-2.86M30.91,23.84l-12.85,3.1-.53,37.4,11.44,1.71,1.94-42.21h0Z"/>
      <path class="uuid-c9833dae-d258-41d6-8529-3492c835ea32" d="M47.79,24.72l2.81,40.63-20.66-.22,1.85-40.36,15.99-.05M48.66,23.78l-17.75.06-1.94,42.21,22.63.24-2.94-42.51h0Z"/>
      <path class="uuid-72be530e-addf-4afd-8845-3ada65cbe63d" d="M49.1,24.28l13.28,2.35,4.8,37.04-15.21,2.15-2.88-41.54M48.66,23.78l2.94,42.51,16.04-2.27-4.89-37.74-14.1-2.5h0Z"/>
      <path class="uuid-3f37d2e3-146e-48b3-89c9-d188c8564701" d="M96.88,25.1l.51,37.04-17.19.97,2.04-33.72,14.64-4.29M97.52,24.24l-15.9,4.66-2.12,34.91,18.55-1.05-.53-38.52h0Z"/>
      <path class="uuid-7473cb30-e4de-4bc8-99de-3cbf8d4b8848" d="M98.75,25.63l17.68,2.51-.16,34.83-17.03-1.34-.49-36M97.52,24.24l.53,38.52,19.43,1.53.17-37.19-20.12-2.86h0Z"/>
      <path class="uuid-66ad31f1-ecde-442b-8a8b-63547ab8a339" d="M132.97,25.2l5.1,35.92-19.72,2.18.16-35.47,14.45-2.63M133.71,24.17l-16.07,2.92-.17,37.19,21.6-2.39-5.36-37.72h0Z"/>
      <path class="uuid-7473cb30-e4de-4bc8-99de-3cbf8d4b8848" d="M134.33,24.79l10.54,1.66,13.38,36.83-18.72-1.87-5.2-36.62M133.71,24.17l5.36,37.72,19.95,1.99-13.77-37.9-11.54-1.82h0Z"/>
    </g>
    <g id="uuid-bc2ebf4b-be73-44d7-bd45-13e1a143535c" data-name="Single AB Number copy 4">
      <g>
        <circle class="uuid-958f4c87-d47b-4f73-9e03-8fe1b1a9fbe0" cx="80" cy="45" r="6.35"/>
        <text class="uuid-cfa3f2c9-4c54-4c82-a834-738d1b0c0a90" transform="translate(77.09 47.99)"><tspan x="0" y="0">7</tspan></text>
      </g>
    </g>
  </g>
</svg>