<?xml version="1.0" encoding="UTF-8"?>
<svg id="uuid-605decf3-5cf9-4930-9e74-436d02847b58" data-name="ABs" xmlns="http://www.w3.org/2000/svg" width="160" height="90" xmlns:xlink="http://www.w3.org/1999/xlink" viewBox="0 0 160 90">
  <defs>
    <style>
      .uuid-4dfe21ad-4b78-495a-9ffa-d9ad8d45d30e {
        fill: #baad4a;
      }

      .uuid-2b896fcb-486f-44ce-8775-1e43d69d7668 {
        fill: #ad5625;
      }

      .uuid-79ad51e2-d138-4c44-9c89-463e77289d7a {
        fill: #b35926;
      }

      .uuid-a7701ef5-92fd-4682-812e-ef0076043dde {
        fill: #cc6226;
      }

      .uuid-0079a028-16ba-4392-adf4-201e655ce591 {
        fill: #b3a647;
      }

      .uuid-8290956a-7c0e-4ab4-a630-559a46831c07 {
        fill: #c9bb50;
      }
    </style>
    <symbol id="uuid-d9512a91-9d48-4556-8ac7-4f77b8138ffb" data-name="Bounding Box" viewBox="0 0 161.31 94.16"/>
  </defs>
  <g id="uuid-4b35e57f-d5b6-4d15-a000-b7488b97c75f" data-name="AB05">
    <use width="161.31" height="94.16" transform="translate(-1.31)" xlink:href="#uuid-d9512a91-9d48-4556-8ac7-4f77b8138ffb"/>
    <g>
      <polygon class="uuid-8290956a-7c0e-4ab4-a630-559a46831c07" points=".47 26.37 3.61 65.25 16.69 64.29 17.22 27.32 .47 26.37"/>
      <polygon class="uuid-0079a028-16ba-4392-adf4-201e655ce591" points="17.22 27.32 16.69 64.29 28.34 65.14 30.76 24.43 17.22 27.32"/>
      <polygon class="uuid-8290956a-7c0e-4ab4-a630-559a46831c07" points="30.76 24.43 28.34 65.14 52.91 65.37 50 24.21 30.76 24.43"/>
      <polygon class="uuid-4dfe21ad-4b78-495a-9ffa-d9ad8d45d30e" points="50 24.21 52.91 65.37 68.43 64.32 64.27 26.84 50 24.21"/>
      <polygon class="uuid-79ad51e2-d138-4c44-9c89-463e77289d7a" points="82.58 29.26 80.49 63.42 99.33 62.72 98.3 24.65 82.58 29.26"/>
      <polygon class="uuid-a7701ef5-92fd-4682-812e-ef0076043dde" points="98.3 24.65 99.33 62.72 118.36 63.89 118.53 27.48 98.3 24.65"/>
      <polygon class="uuid-2b896fcb-486f-44ce-8775-1e43d69d7668" points="118.53 27.48 118.36 63.89 140.22 62.38 134.41 24.59 118.53 27.48"/>
      <polygon class="uuid-a7701ef5-92fd-4682-812e-ef0076043dde" points="134.41 24.59 140.22 62.38 159.43 63.84 145.65 26.38 134.41 24.59"/>
    </g>
  </g>
</svg>