<?xml version="1.0" encoding="UTF-8"?>
<svg id="uuid-dd4326ad-2358-4435-b2d3-d79a63c024ad" data-name="ABs" xmlns="http://www.w3.org/2000/svg" width="160" height="90" xmlns:xlink="http://www.w3.org/1999/xlink" viewBox="0 0 160 90">
  <defs>
    <style>
      .uuid-eae57a47-0c29-4f16-983c-90ff77d63a97 {
        fill: #fff;
        opacity: .8;
      }

      .uuid-f95933e1-eaf0-4459-8363-6259bad43061 {
        fill: #cc6226;
      }

      .uuid-6445b45c-e056-4ba1-b7f9-dd0ea3239b61 {
        fill: #c9bb50;
      }
    </style>
    <symbol id="uuid-f34d78bf-2413-4f02-beb6-10bc564f5cfb" data-name="Bounding Box" viewBox="0 0 161.31 93.86"/>
  </defs>
  <g id="uuid-5176f5d5-62dc-4971-bfe0-69a776704938" data-name="AB02">
    <use width="161.31" height="93.86" transform="translate(-1.31)" xlink:href="#uuid-f34d78bf-2413-4f02-beb6-10bc564f5cfb"/>
    <g id="uuid-f5e4b641-4949-43a5-bea0-c8e941e1aa63" data-name="TEMP LOGO">
      <rect class="uuid-f95933e1-eaf0-4459-8363-6259bad43061" x="83.78" y="33.77" width="75.54" height="22.66" rx=".5" ry=".5"/>
      <g id="uuid-e9aff42e-47df-4f03-8f5f-8d5dc49b9423" data-name="Logo copy 2">
        <path class="uuid-eae57a47-0c29-4f16-983c-90ff77d63a97" d="M88.73,52.33v-14.85h1.67v13.18h13.16v1.67h-14.83ZM107.18,52.33c-.69,0-1.27-.24-1.75-.72-.48-.48-.72-1.06-.72-1.75v-9.88c0-.69.24-1.27.72-1.75.48-.48,1.06-.72,1.75-.72h9.89c.69,0,1.27.24,1.75.72.48.48.72,1.07.72,1.75v9.88c0,.69-.24,1.27-.72,1.75-.48.48-1.06.72-1.75.72h-9.89ZM107.18,50.66h9.89c.22,0,.41-.08.57-.24.16-.16.24-.35.24-.57v-9.88c0-.22-.08-.41-.24-.57-.16-.16-.35-.24-.57-.24h-9.89c-.22,0-.41.08-.57.24-.16.16-.24.35-.24.57v9.88c0,.22.08.41.24.57.16.16.35.24.57.24ZM124.27,52.33c-.69,0-1.27-.24-1.75-.72s-.72-1.06-.72-1.75v-9.88c0-.69.24-1.27.72-1.75.48-.48,1.07-.72,1.75-.72h9.88c.69,0,1.27.24,1.75.72.48.48.72,1.07.72,1.75v.6h-1.67v-.6c0-.22-.08-.41-.24-.57-.16-.16-.35-.24-.57-.24h-9.88c-.22,0-.41.08-.57.24-.16.16-.24.35-.24.57v9.88c0,.22.08.41.24.57.16.16.34.24.57.24h9.88c.22,0,.41-.08.57-.24.16-.16.24-.35.24-.57v-3.67h-3.67v-1.69h5.33v5.35c0,.69-.24,1.27-.72,1.75-.48.48-1.06.72-1.75.72h-9.88ZM141.32,52.33c-.69,0-1.27-.24-1.75-.72-.48-.48-.72-1.06-.72-1.75v-9.88c0-.69.24-1.27.72-1.75.48-.48,1.06-.72,1.75-.72h9.89c.69,0,1.27.24,1.75.72.48.48.72,1.07.72,1.75v9.88c0,.69-.24,1.27-.72,1.75-.48.48-1.06.72-1.75.72h-9.89ZM141.32,50.66h9.89c.22,0,.41-.08.57-.24.16-.16.24-.35.24-.57v-9.88c0-.22-.08-.41-.24-.57-.16-.16-.35-.24-.57-.24h-9.89c-.22,0-.41.08-.57.24-.16.16-.24.35-.24.57v9.88c0,.22.08.41.24.57.16.16.35.24.57.24Z"/>
      </g>
      <rect class="uuid-6445b45c-e056-4ba1-b7f9-dd0ea3239b61" x=".68" y="33.77" width="75.54" height="22.66" rx=".5" ry=".5"/>
      <g id="uuid-c9298720-601a-4a7d-99bf-0f379e4c40f8" data-name="TEMP copy">
        <path class="uuid-eae57a47-0c29-4f16-983c-90ff77d63a97" d="M12.23,52.33v-13.18h-6.6v-1.67h14.85v1.67h-6.58v13.18h-1.67ZM22.06,52.33v-14.85h13.55v1.67h-11.88v4.91h9.55v1.69h-9.55v4.91h11.88v1.67h-13.55ZM37.22,52.33v-14.85h2.29l6.16,7.34,6.17-7.34h2.29v14.85h-1.67v-12.95l-6.79,8.06-6.78-8.06v12.95h-1.67ZM56.36,52.33v-14.83h12.37c.69,0,1.27.24,1.75.73s.72,1.07.72,1.74v4.35c0,.67-.24,1.25-.72,1.74-.48.49-1.06.73-1.75.73h-10.7v5.53h-1.67ZM58.83,45.11h9.9c.22,0,.41-.08.57-.23s.24-.34.24-.56v-4.35c0-.22-.08-.41-.24-.57s-.35-.24-.57-.24h-9.9c-.22,0-.41.08-.57.24-.16.16-.24.35-.24.57v4.35c0,.22.08.41.24.56.16.15.34.23.57.23Z"/>
      </g>
    </g>
  </g>
</svg>