<?xml version="1.0" encoding="UTF-8"?>
<svg id="uuid-838b1417-ead8-4be9-9d69-60ba42c16fd2" data-name="Layer 2" xmlns="http://www.w3.org/2000/svg" width="15.25" height="9.75" viewBox="0 0 15.25 9.75">
  <defs>
    <style>
      .uuid-566ef43b-ad67-4aee-a618-d9475acc9fef {
        fill: #fff;
      }

      .uuid-566ef43b-ad67-4aee-a618-d9475acc9fef, .uuid-118e4d76-9c48-436e-9a9a-cf471a95a972 {
        opacity: .8;
      }

      .uuid-921de6a7-28f9-4583-b47a-3076498c1ce2 {
        fill: #cc6226;
      }

      .uuid-3a36879c-0000-40f0-99bc-ac479b563709 {
        opacity: .6;
      }

      .uuid-d74615dc-fcfc-4a2d-b5cf-54958e1ab075 {
        fill: #c9bb50;
      }
    </style>
  </defs>
  <g id="uuid-cb4aabb6-cc4d-43ce-ab68-bae035112af0" data-name="ABs">
    <g id="uuid-b823ca09-b1c7-41e2-a148-9558731d528e" data-name="AB05">
      <g id="uuid-35c16f1b-e8ac-4969-8779-de45c2936f15" data-name="Logo 02 two lines">
        <g class="uuid-118e4d76-9c48-436e-9a9a-cf471a95a972">
          <rect class="uuid-921de6a7-28f9-4583-b47a-3076498c1ce2" y="5.25" width="15.25" height="4.5" rx=".25" ry=".25"/>
        </g>
        <path class="uuid-566ef43b-ad67-4aee-a618-d9475acc9fef" d="M1,9v-3h.34v2.66h2.66v.34H1ZM4.73,9c-.14,0-.26-.05-.35-.15-.1-.1-.15-.21-.15-.35v-2c0-.14.05-.26.15-.35.1-.1.21-.15.35-.15h2c.14,0,.26.05.35.15.1.1.15.22.15.35v2c0,.14-.05.26-.15.35-.1.1-.21.15-.35.15h-2ZM4.73,8.66h2s.08-.02.11-.05c.03-.03.05-.07.05-.11v-2s-.02-.08-.05-.11c-.03-.03-.07-.05-.11-.05h-2s-.08.02-.11.05c-.03.03-.05.07-.05.11v2s.02.08.05.11c.03.03.07.05.11.05ZM8.18,9c-.14,0-.26-.05-.35-.15s-.15-.21-.15-.35v-2c0-.14.05-.26.15-.35.1-.1.22-.15.35-.15h2c.14,0,.26.05.35.15.1.1.15.22.15.35v.12h-.34v-.12s-.02-.08-.05-.11c-.03-.03-.07-.05-.11-.05h-2s-.08.02-.11.05c-.03.03-.05.07-.05.11v2s.02.08.05.11c.03.03.07.05.11.05h2s.08-.02.11-.05c.03-.03.05-.07.05-.11v-.74h-.74v-.34h1.08v1.08c0,.14-.05.26-.15.35-.1.1-.21.15-.35.15h-2ZM11.63,9c-.14,0-.26-.05-.35-.15-.1-.1-.15-.21-.15-.35v-2c0-.14.05-.26.15-.35.1-.1.21-.15.35-.15h2c.14,0,.26.05.35.15.1.1.15.22.15.35v2c0,.14-.05.26-.15.35-.1.1-.21.15-.35.15h-2ZM11.63,8.66h2s.08-.02.11-.05c.03-.03.05-.07.05-.11v-2s-.02-.08-.05-.11c-.03-.03-.07-.05-.11-.05h-2s-.08.02-.11.05c-.03.03-.05.07-.05.11v2s.02.08.05.11c.03.03.07.05.11.05Z"/>
        <g class="uuid-3a36879c-0000-40f0-99bc-ac479b563709">
          <rect class="uuid-d74615dc-fcfc-4a2d-b5cf-54958e1ab075" x="0" width="15.25" height="4.5" rx=".25" ry=".25"/>
        </g>
        <path class="uuid-566ef43b-ad67-4aee-a618-d9475acc9fef" d="M2.33,3.75V1.09h-1.33v-.34h3v.34h-1.33v2.66h-.34ZM4.32,3.75V.75h2.74v.34h-2.4v.99h1.93v.34h-1.93v.99h2.4v.34h-2.74ZM7.38,3.75V.75h.46l1.25,1.48,1.25-1.48h.46v3h-.34V1.13l-1.37,1.63-1.37-1.63v2.62h-.34ZM11.25,3.75V.75h2.5c.14,0,.26.05.35.15s.15.22.15.35v.88c0,.14-.05.25-.15.35s-.22.15-.35.15h-2.16v1.12h-.34ZM11.75,2.29h2s.08-.02.11-.05.05-.07.05-.11v-.88s-.02-.08-.05-.11-.07-.05-.11-.05h-2s-.08.02-.11.05c-.03.03-.05.07-.05.11v.88s.02.08.05.11c.03.03.07.05.11.05Z"/>
      </g>
    </g>
  </g>
</svg>