<?xml version="1.0" encoding="UTF-8"?>
<svg id="uuid-95632c2d-6ef3-45b6-8616-881023277f59" data-name="ABs" xmlns="http://www.w3.org/2000/svg" width="160" height="90" xmlns:xlink="http://www.w3.org/1999/xlink" viewBox="0 0 160 90">
  <defs>
    <style>
      .uuid-edbe6837-2064-4f9e-b9d2-cd99b4d4c049 {
        stroke: #c2b44d;
        stroke-width: .6px;
      }

      .uuid-edbe6837-2064-4f9e-b9d2-cd99b4d4c049, .uuid-a7bf50e6-57a6-400e-a983-5bec9f219a3d, .uuid-fc04bfb7-99b3-4226-89b0-c9a3242d2f78, .uuid-b67127d7-f4c5-47a8-b83b-fd71746af455, .uuid-b465c5f7-598c-42dc-9a43-1472fc3b3fba, .uuid-6335b83f-6658-4cc0-9413-070c317dc75c, .uuid-35cc8d83-04b7-4a69-8796-cfad33201230, .uuid-0c2df0af-a9bf-43ba-b137-4a756858e90f {
        fill: none;
      }

      .uuid-a7bf50e6-57a6-400e-a983-5bec9f219a3d {
        stroke-width: .78px;
      }

      .uuid-a7bf50e6-57a6-400e-a983-5bec9f219a3d, .uuid-fc04bfb7-99b3-4226-89b0-c9a3242d2f78 {
        stroke: #cc6226;
      }

      .uuid-fc04bfb7-99b3-4226-89b0-c9a3242d2f78 {
        stroke-width: .34px;
      }

      .uuid-b67127d7-f4c5-47a8-b83b-fd71746af455 {
        stroke: #b35926;
        stroke-width: .57px;
      }

      .uuid-ce21a907-87ab-41e2-8054-095fd608c43e {
        fill: #c2b44d;
      }

      .uuid-b4db4dcf-218e-41a3-bc0e-931cdaf48f23 {
        fill: #baad4a;
      }

      .uuid-eac6b712-9b0d-4e50-8d48-920687e49a3e {
        fill: #ad5625;
      }

      .uuid-b465c5f7-598c-42dc-9a43-1472fc3b3fba {
        stroke: #ad5625;
        stroke-width: .42px;
      }

      .uuid-aea5c57b-d4ae-4f0b-87ba-94196b1c66b9 {
        fill: #b35926;
      }

      .uuid-6335b83f-6658-4cc0-9413-070c317dc75c {
        stroke-width: .26px;
      }

      .uuid-6335b83f-6658-4cc0-9413-070c317dc75c, .uuid-35cc8d83-04b7-4a69-8796-cfad33201230 {
        stroke: #c9bb50;
      }

      .uuid-35cc8d83-04b7-4a69-8796-cfad33201230 {
        stroke-width: .5px;
      }

      .uuid-896753a0-1c77-4c07-9503-44bb304aad91 {
        fill: #cc6226;
      }

      .uuid-0c2df0af-a9bf-43ba-b137-4a756858e90f {
        stroke: #baad4a;
        stroke-width: .31px;
      }

      .uuid-798c3d25-7d67-48b7-8d5c-b357365c2b0c {
        fill: #c9bb50;
      }
    </style>
    <symbol id="uuid-51810ea1-234f-4873-a44b-3818d4efa816" data-name="Bounding Box" viewBox="0 0 161.31 93.86"/>
  </defs>
  <g id="uuid-3601c4f2-0771-47c4-9f93-7caec84879df" data-name="AB09">
    <use width="161.31" height="93.86" transform="translate(-1.31)" xlink:href="#uuid-51810ea1-234f-4873-a44b-3818d4efa816"/>
    <g>
      <line class="uuid-35cc8d83-04b7-4a69-8796-cfad33201230" x1="1.98" y1="27.15" x2="16.3" y2="63.75"/>
      <line class="uuid-edbe6837-2064-4f9e-b9d2-cd99b4d4c049" x1="32.05" y1="24.67" x2="50.2" y2="65.49"/>
      <line class="uuid-6335b83f-6658-4cc0-9413-070c317dc75c" x1="62.27" y1="26.37" x2="52.13" y2="66"/>
      <line class="uuid-0c2df0af-a9bf-43ba-b137-4a756858e90f" x1="30.05" y1="24.47" x2="18.08" y2="64.2"/>
      <line class="uuid-fc04bfb7-99b3-4226-89b0-c9a3242d2f78" x1="158.38" y1="63.41" x2="134.93" y2="24.93"/>
      <line class="uuid-a7bf50e6-57a6-400e-a983-5bec9f219a3d" x1="116.1" y1="63.13" x2="99.51" y2="25.91"/>
      <line class="uuid-b465c5f7-598c-42dc-9a43-1472fc3b3fba" x1="80.56" y1="63.23" x2="96.7" y2="25.37"/>
      <line class="uuid-b67127d7-f4c5-47a8-b83b-fd71746af455" x1="119.04" y1="63.22" x2="132.85" y2="25.55"/>
      <path class="uuid-798c3d25-7d67-48b7-8d5c-b357365c2b0c" d="M1.68,26.97l15.23.85-.51,35.65-11.71.83L1.68,26.97M.58,25.9l3.19,39.48,13.63-.97.53-37.54-17.35-.97h0Z"/>
      <path class="uuid-b4db4dcf-218e-41a3-bc0e-931cdaf48f23" d="M30.17,24.56l-1.88,40.86-10.27-1.54.52-36.52,11.62-2.8M30.82,23.76l-12.89,3.11-.53,37.54,11.48,1.72,1.94-42.37h0Z"/>
      <path class="uuid-ce21a907-87ab-41e2-8054-095fd608c43e" d="M47.52,24.91l2.79,40.25-20.17-.21,1.84-39.99,15.55-.05M48.64,23.71l-17.82.06-1.94,42.37,22.72.24-2.95-42.67h0Z"/>
      <path class="uuid-798c3d25-7d67-48b7-8d5c-b357365c2b0c" d="M49.21,24.34l13.1,2.32,4.79,36.98-15.03,2.12-2.87-41.42M48.64,23.71l2.95,42.67,16.11-2.28-4.91-37.88-14.15-2.51h0Z"/>
      <path class="uuid-eac6b712-9b0d-4e50-8d48-920687e49a3e" d="M96.87,25.27l.5,36.76-16.87.96,2.03-33.51,14.34-4.2M97.69,24.16l-15.96,4.68-2.12,35.04,18.62-1.05-.53-38.66h0Z"/>
      <path class="uuid-896753a0-1c77-4c07-9503-44bb304aad91" d="M99.27,25.96l17.05,2.42-.16,34.29-16.4-1.29-.48-35.42M97.69,24.16l.53,38.66,19.5,1.53.17-37.33-20.2-2.87h0Z"/>
      <path class="uuid-aea5c57b-d4ae-4f0b-87ba-94196b1c66b9" d="M133.06,25.42l5.05,35.54-19.25,2.13.16-35.11,14.04-2.55M134.02,24.09l-16.13,2.93-.17,37.33,21.68-2.4-5.38-37.87h0Z"/>
      <path class="uuid-896753a0-1c77-4c07-9503-44bb304aad91" d="M134.81,24.9l10.3,1.62,13.32,36.67-18.44-1.84-5.18-36.45M134.02,24.09l5.38,37.87,20.03,2-13.82-38.04-11.58-1.82h0Z"/>
    </g>
  </g>
</svg>