<?xml version="1.0" encoding="UTF-8"?>
<svg id="uuid-7a58e1dd-6421-4b31-b325-afb2c52e7e1e" data-name="ABs" xmlns="http://www.w3.org/2000/svg" width="160" height="90" xmlns:xlink="http://www.w3.org/1999/xlink" viewBox="0 0 160 90">
  <defs>
    <style>
      .uuid-e5af1b72-6fea-4b79-ac04-c6878e614c89 {
        fill: #232323;
      }

      .uuid-f6998d0c-0469-43db-945a-5f91185ea8c2 {
        fill: #4e83a9;
      }

      .uuid-a6da03f0-80ea-4832-b082-20d6625d506a {
        fill: #cc6226;
      }

      .uuid-bfb8a386-5fd3-485a-8195-11670198a1ab {
        fill: none;
        stroke: #ff66c7;
        stroke-width: .12px;
      }

      .uuid-0a2cbf63-adb7-4ed6-815c-e287f91245d4 {
        fill: #ff66c7;
      }

      .uuid-41155f37-2fa5-4974-bfe8-8c296ac4d027 {
        fill: #6e695a;
        opacity: .1;
      }

      .uuid-0d788121-f174-43f0-ae14-dda6b26a1cfc {
        fill: #f2efeb;
        font-size: 8.5px;
      }

      .uuid-0d788121-f174-43f0-ae14-dda6b26a1cfc, .uuid-6e6383ab-e990-46f3-afe0-97dbda9ab70d {
        font-family: Exo-Italic, Exo;
        font-style: italic;
      }

      .uuid-6e6383ab-e990-46f3-afe0-97dbda9ab70d {
        fill: #fff;
        font-size: 2.5px;
      }

      .uuid-76ce639f-6dcf-4283-bb34-c6eb921f34b1 {
        fill: #c9bb50;
      }
    </style>
    <symbol id="uuid-840945bb-04b5-4c6d-b60b-922a8162bdec" data-name="Bounding Box" viewBox="0 0 161.31 94.16">
      <g>
        <g id="uuid-9d9505e5-cfde-4496-9050-fb502de9189e" data-name="BG">
          <rect class="uuid-e5af1b72-6fea-4b79-ac04-c6878e614c89" x="1.31" width="160" height="90"/>
          <rect class="uuid-41155f37-2fa5-4974-bfe8-8c296ac4d027" x="1.31" width="160" height="90"/>
        </g>
        <g id="uuid-eda8c4ed-c1c6-44fc-a33c-caae92f01a87" data-name="Grid Lines">
          <g>
            <path class="uuid-0a2cbf63-adb7-4ed6-815c-e287f91245d4" d="M161.18.12v89.75H1.43V.12h159.75M161.31,0H1.31v90h160V0h0Z"/>
            <line class="uuid-bfb8a386-5fd3-485a-8195-11670198a1ab" x1="1.31" y1="81" x2="161.31" y2="81"/>
            <line class="uuid-bfb8a386-5fd3-485a-8195-11670198a1ab" x1="1.31" y1="72" x2="161.31" y2="72"/>
            <line class="uuid-bfb8a386-5fd3-485a-8195-11670198a1ab" x1="1.31" y1="63" x2="161.31" y2="63"/>
            <line class="uuid-bfb8a386-5fd3-485a-8195-11670198a1ab" x1="1.31" y1="54" x2="161.31" y2="54"/>
            <line class="uuid-bfb8a386-5fd3-485a-8195-11670198a1ab" x1="1.31" y1="45" x2="161.31" y2="45"/>
            <line class="uuid-bfb8a386-5fd3-485a-8195-11670198a1ab" x1="1.31" y1="36" x2="161.31" y2="36"/>
            <line class="uuid-bfb8a386-5fd3-485a-8195-11670198a1ab" x1="1.31" y1="27" x2="161.31" y2="27"/>
            <line class="uuid-bfb8a386-5fd3-485a-8195-11670198a1ab" x1="1.31" y1="18" x2="161.31" y2="18"/>
            <line class="uuid-bfb8a386-5fd3-485a-8195-11670198a1ab" x1="1.31" y1="9" x2="161.31" y2="9"/>
            <line class="uuid-bfb8a386-5fd3-485a-8195-11670198a1ab" x1="145.31" x2="145.31" y2="90"/>
            <line class="uuid-bfb8a386-5fd3-485a-8195-11670198a1ab" x1="129.31" x2="129.31" y2="90"/>
            <line class="uuid-bfb8a386-5fd3-485a-8195-11670198a1ab" x1="113.31" x2="113.31" y2="90"/>
            <line class="uuid-bfb8a386-5fd3-485a-8195-11670198a1ab" x1="97.31" x2="97.31" y2="90"/>
            <line class="uuid-bfb8a386-5fd3-485a-8195-11670198a1ab" x1="81.31" x2="81.31" y2="90"/>
            <line class="uuid-bfb8a386-5fd3-485a-8195-11670198a1ab" x1="65.31" x2="65.31" y2="90"/>
            <line class="uuid-bfb8a386-5fd3-485a-8195-11670198a1ab" x1="49.31" x2="49.31" y2="90"/>
            <line class="uuid-bfb8a386-5fd3-485a-8195-11670198a1ab" x1="33.31" x2="33.31" y2="90"/>
            <line class="uuid-bfb8a386-5fd3-485a-8195-11670198a1ab" x1="17.31" x2="17.31" y2="90"/>
          </g>
        </g>
        <g id="uuid-1681dba1-ebbd-43de-9ed7-011416d3ef8e" data-name="Numbers as %">
          <text class="uuid-6e6383ab-e990-46f3-afe0-97dbda9ab70d" transform="translate(93.21 47.48)"><tspan x="0" y="0">20</tspan></text>
          <text class="uuid-6e6383ab-e990-46f3-afe0-97dbda9ab70d" transform="translate(109.43 47.48)"><tspan x="0" y="0">40</tspan></text>
          <text class="uuid-6e6383ab-e990-46f3-afe0-97dbda9ab70d" transform="translate(125.38 47.48)"><tspan x="0" y="0">60</tspan></text>
          <text class="uuid-6e6383ab-e990-46f3-afe0-97dbda9ab70d" transform="translate(141.36 47.48)"><tspan x="0" y="0">80</tspan></text>
          <text class="uuid-6e6383ab-e990-46f3-afe0-97dbda9ab70d" transform="translate(156.2 47.48)"><tspan x="0" y="0">100</tspan></text>
          <text class="uuid-6e6383ab-e990-46f3-afe0-97dbda9ab70d" transform="translate(1.8 47.48)"><tspan x="0" y="0">100</tspan></text>
          <text class="uuid-6e6383ab-e990-46f3-afe0-97dbda9ab70d" transform="translate(17.81 47.48)"><tspan x="0" y="0">80</tspan></text>
          <text class="uuid-6e6383ab-e990-46f3-afe0-97dbda9ab70d" transform="translate(33.83 47.48)"><tspan x="0" y="0">60</tspan></text>
          <text class="uuid-6e6383ab-e990-46f3-afe0-97dbda9ab70d" transform="translate(49.84 47.48)"><tspan x="0" y="0">40</tspan></text>
          <text class="uuid-6e6383ab-e990-46f3-afe0-97dbda9ab70d" transform="translate(65.85 47.48)"><tspan x="0" y="0">20</tspan></text>
          <text class="uuid-6e6383ab-e990-46f3-afe0-97dbda9ab70d" transform="translate(77.39 38.59)"><tspan x="0" y="0">20</tspan></text>
          <text class="uuid-6e6383ab-e990-46f3-afe0-97dbda9ab70d" transform="translate(77.44 29.58)"><tspan x="0" y="0">40</tspan></text>
          <text class="uuid-6e6383ab-e990-46f3-afe0-97dbda9ab70d" transform="translate(77.37 20.56)"><tspan x="0" y="0">60</tspan></text>
          <text class="uuid-6e6383ab-e990-46f3-afe0-97dbda9ab70d" transform="translate(77.3 11.55)"><tspan x="0" y="0">80</tspan></text>
          <text class="uuid-6e6383ab-e990-46f3-afe0-97dbda9ab70d" transform="translate(76.33 2.65)"><tspan x="0" y="0">100</tspan></text>
          <text class="uuid-6e6383ab-e990-46f3-afe0-97dbda9ab70d" transform="translate(76.33 89.07)"><tspan x="0" y="0">100</tspan></text>
          <text class="uuid-6e6383ab-e990-46f3-afe0-97dbda9ab70d" transform="translate(77.3 80.05)"><tspan x="0" y="0">80</tspan></text>
          <text class="uuid-6e6383ab-e990-46f3-afe0-97dbda9ab70d" transform="translate(77.37 71.04)"><tspan x="0" y="0">60</tspan></text>
          <text class="uuid-6e6383ab-e990-46f3-afe0-97dbda9ab70d" transform="translate(77.44 62.02)"><tspan x="0" y="0">40</tspan></text>
          <text class="uuid-6e6383ab-e990-46f3-afe0-97dbda9ab70d" transform="translate(77.39 53.13)"><tspan x="0" y="0">20</tspan></text>
        </g>
      </g>
    </symbol>
  </defs>
  <g id="uuid-2a7d5199-946c-4bb5-842b-49022f436722" data-name="AB03">
    <use width="161.31" height="94.16" transform="translate(-1.31)" xlink:href="#uuid-840945bb-04b5-4c6d-b60b-922a8162bdec"/>
    <g id="uuid-0bea0d35-e009-415f-bfe9-64227305b118" data-name="Logo copy 3">
      <path class="uuid-a6da03f0-80ea-4832-b082-20d6625d506a" d="M159.26,62.48c.04.07,0,.13-.09.13l-18.92-1.16c-.08,0-.16-.07-.18-.16l-8.01-35.19c-.02-.08.03-.14.12-.13l10.17.95c.08,0,.18.08.21.15l16.7,35.4ZM157.46,61.6c.22.01.32-.14.23-.33l-3.37-7.3c-.09-.2-.34-.39-.55-.43l-14.93-2.96c-.21-.04-.34.1-.29.31l2.2,9.31c.05.21.27.39.48.41l16.23,1Z"/>
      <path class="uuid-a6da03f0-80ea-4832-b082-20d6625d506a" d="M137.71,60.09c.12.64-.31,1.19-.96,1.23l-18.44,1.22c-.65.04-1.14-.45-1.1-1.1l2.01-33.72c.04-.65.6-1.2,1.24-1.23l9.65-.47c.65-.03,1.27.46,1.39,1.1l6.2,32.97ZM126.23,44.81c-3.84.31-6.68,3.95-6.34,8.12.34,4.17,3.73,7.3,7.56,6.99,3.84-.31,6.68-3.95,6.34-8.12-.34-4.17-3.73-7.3-7.56-6.99Z"/>
      <path class="uuid-a6da03f0-80ea-4832-b082-20d6625d506a" d="M116.33,61.44c-.01.65-.55,1.16-1.2,1.15l-13.78-.33c-.65-.02-1.2-.56-1.24-1.2l-1.83-33.91c-.03-.65.46-1.14,1.11-1.09l16.53,1.2c.64.05,1.16.61,1.15,1.26l-.73,32.93ZM108.46,42.51c-.02.21.14.42.36.46l2.75.47c.21.04.43-.1.49-.31l3.68-13.39c.06-.21-.07-.42-.28-.46l-5.49-1.25c-.21-.05-.4.09-.41.3l-1.1,14.19Z"/>
      <path class="uuid-a6da03f0-80ea-4832-b082-20d6625d506a" d="M97.93,59.87c.01.65-.51,1.21-1.15,1.26l-14.38,1.01c-.64.05-1.14-.45-1.1-1.09l1.82-29.61c.04-.65.58-1.31,1.21-1.47l11.9-3.13c.63-.16,1.15.23,1.16.88l.55,32.15ZM88.97,52.07c-1.04-3.45.3-6.9,2.99-7.71.03,0,.06-.02.09-.02-.78-.04-1.58.05-2.37.28-3.67,1.1-5.75,4.96-4.65,8.63,1.1,3.67,4.96,5.75,8.63,4.65.79-.24,1.51-.6,2.13-1.07-.03,0-.06.02-.09.03-2.68.81-5.7-1.34-6.74-4.79Z"/>
      <path class="uuid-76ce639f-6dcf-4283-bb34-c6eb921f34b1" d="M70.13,62.27c0,.08-.05.15-.13.16l-13.88.77c-.08,0-.15-.06-.15-.14V26.7c0-.08.07-.14.15-.14l9.98.76c.08,0,.16.08.17.16l3.87,34.79ZM60.21,29.48c0-.08-.08-.16-.16-.17l-1.78-.2c-.08,0-.15.05-.15.13l.2,31.17c0,.08.07.15.15.15l4.77.09c.08,0,.14-.06.13-.15l-3.16-31.04Z"/>
      <path class="uuid-76ce639f-6dcf-4283-bb34-c6eb921f34b1" d="M55.29,62.03c.02.65-.49,1.15-1.13,1.13l-23.45-.89c-.65-.02-1.15-.57-1.12-1.22l1.43-32.93c.03-.65.58-1.18,1.23-1.19l20.66-.35c.65-.01,1.19.51,1.22,1.15l1.18,34.3ZM33.3,41.31l5.32,4.95-2.95,6.64,6.35-3.53,5.41,4.86-1.4-7.14,6.29-3.64-7.22-.88-1.52-7.11-3.06,6.59-7.23-.75Z"/>
      <path class="uuid-76ce639f-6dcf-4283-bb34-c6eb921f34b1" d="M27.65,63.06c0,.08-.08.15-.16.14l-11.19-.76c-.08,0-.14-.08-.14-.16l3.43-35.57c0-.08.08-.15.16-.15l10.32.19c.08,0,.15.07.14.15l-2.56,36.16ZM23.62,36.45c-1.34.13-2.31,1.46-2.16,2.96.15,1.5,1.36,2.61,2.7,2.48,1.34-.13,2.31-1.46,2.16-2.96-.15-1.5-1.36-2.61-2.7-2.48Z"/>
      <path class="uuid-76ce639f-6dcf-4283-bb34-c6eb921f34b1" d="M15.15,62.66c0,.08-.08.15-.16.16l-10.23.38c-.08,0-.16-.06-.17-.14L.7,26.7c0-.08.05-.14.13-.14l16.79,1.15c.08,0,.14.08.14.16l-2.62,34.79ZM13.65,34.04c-.8-1.99-3.28-2.86-5.53-1.95-2.25.91-3.43,3.26-2.62,5.25.8,1.99,3.28,2.86,5.53,1.95,2.25-.91,3.43-3.26,2.62-5.25Z"/>
    </g>
    <g id="uuid-8f6b2239-7408-43c1-9b76-13839beddb2d" data-name="Single AB Number copy">
      <g>
        <circle class="uuid-f6998d0c-0469-43db-945a-5f91185ea8c2" cx="80" cy="45" r="6.35"/>
        <text class="uuid-0d788121-f174-43f0-ae14-dda6b26a1cfc" transform="translate(76.91 47.99)"><tspan x="0" y="0">3</tspan></text>
      </g>
    </g>
  </g>
</svg>