<?xml version="1.0" encoding="UTF-8"?>
<svg id="uuid-5e6e1b08-1754-4494-9d6c-3b0e24c41c48" data-name="Layer 2" xmlns="http://www.w3.org/2000/svg" width="118.25" height="118.25" viewBox="0 0 11.82 11.82">
  <defs>
    <style>
      .uuid-9235014e-01bc-4bb5-8802-1695fe45815e {
        fill: none;
        stroke: #6e695a;
        stroke-linecap: round;
        stroke-miterlimit: 10;
        stroke-width: 1.4px;
      }

      .uuid-d6f3c9b1-4868-4613-9de6-b6a8f11739d7 {
        fill: #6e695a;
      }
    </style>
  </defs>
  <g id="uuid-44272d45-d20c-48e4-a92e-0a0c8d4cc4e1" data-name="ABs">
    <g id="uuid-0f0715be-0ed5-4ef1-8318-c805236642a7" data-name="AB14 Various">
      <path class="uuid-d6f3c9b1-4868-4613-9de6-b6a8f11739d7" d="M7.82.7c.88,0,1.71.34,2.33.97.62.62.97,1.45.97,2.33s-.34,1.71-.97,2.33c-.62.62-1.45.97-2.33.97s-1.71-.34-2.33-.97c-1.29-1.29-1.29-3.38,0-4.67.62-.62,1.45-.97,2.33-.97M7.82,0c-1.02,0-2.05.39-2.83,1.17-1.56,1.56-1.56,4.09,0,5.66.78.78,1.8,1.17,2.83,1.17s2.05-.39,2.83-1.17c1.56-1.56,1.56-4.09,0-5.66-.78-.78-1.8-1.17-2.83-1.17h0Z"/>
      <line class="uuid-9235014e-01bc-4bb5-8802-1695fe45815e" x1=".7" y1="11.12" x2="4.24" y2="7.58"/>
    </g>
  </g>
</svg>